<svg width="33" height="29" viewBox="0 0 33 29" fill="none" xmlns="http://www.w3.org/2000/svg">
<path fill-rule="evenodd" clip-rule="evenodd" d="M31.5607 1.35438C32.1464 1.94017 32.1464 2.88991 31.5607 3.4757L20.6213 14.415L31.5607 25.3544C32.1464 25.9402 32.1464 26.8899 31.5607 27.4757C30.9749 28.0615 30.0251 28.0615 29.4393 27.4757L17.4393 15.4757C17.158 15.1944 17 14.8129 17 14.415C17 14.0172 17.158 13.6357 17.4393 13.3544L29.4393 1.35438C30.0251 0.768592 30.9749 0.768592 31.5607 1.35438ZM15.5607 1.35438C16.1464 1.94016 16.1464 2.88991 15.5607 3.4757L4.62132 14.415L15.5607 25.3544C16.1464 25.9402 16.1464 26.8899 15.5607 27.4757C14.9749 28.0615 14.0251 28.0615 13.4393 27.4757L1.43934 15.4757C1.15803 15.1944 0.999997 14.8129 0.999998 14.415C0.999998 14.0172 1.15803 13.6357 1.43934 13.3544L13.4393 1.35438C14.0251 0.768592 14.9749 0.768592 15.5607 1.35438Z" stroke="black" stroke-linecap="round" stroke-linejoin="round"/>
</svg>
