<svg width="33" height="28" viewBox="0 0 33 28" fill="none" xmlns="http://www.w3.org/2000/svg">
<path fill-rule="evenodd" clip-rule="evenodd" d="M1.43934 0.93934C0.853553 1.52513 0.853554 2.47487 1.43934 3.06066L12.3787 14L1.43934 24.9393C0.853556 25.5251 0.853556 26.4749 1.43934 27.0607C2.02513 27.6464 2.97488 27.6464 3.56066 27.0607L15.5607 15.0607C15.842 14.7794 16 14.3978 16 14C16 13.6022 15.842 13.2206 15.5607 12.9393L3.56066 0.93934C2.97487 0.353553 2.02513 0.353553 1.43934 0.93934ZM17.4393 0.939339C16.8536 1.52513 16.8536 2.47487 17.4393 3.06066L28.3787 14L17.4393 24.9393C16.8536 25.5251 16.8536 26.4749 17.4393 27.0607C18.0251 27.6464 18.9749 27.6464 19.5607 27.0607L31.5607 15.0607C31.842 14.7794 32 14.3978 32 14C32 13.6022 31.842 13.2206 31.5607 12.9393L19.5607 0.939339C18.9749 0.353553 18.0251 0.353553 17.4393 0.939339Z" stroke="white" stroke-linecap="round" stroke-linejoin="round"/>
</svg>
