<svg width="33" height="28" viewBox="0 0 33 28" fill="none" xmlns="http://www.w3.org/2000/svg">
<path fill-rule="evenodd" clip-rule="evenodd" d="M31.5607 0.93934C32.1464 1.52513 32.1464 2.47487 31.5607 3.06066L20.6213 14L31.5607 24.9393C32.1464 25.5251 32.1464 26.4749 31.5607 27.0607C30.9749 27.6464 30.0251 27.6464 29.4393 27.0607L17.4393 15.0607C17.158 14.7794 17 14.3978 17 14C17 13.6022 17.158 13.2206 17.4393 12.9393L29.4393 0.93934C30.0251 0.353553 30.9749 0.353553 31.5607 0.93934ZM15.5607 0.939339C16.1464 1.52513 16.1464 2.47487 15.5607 3.06066L4.62132 14L15.5607 24.9393C16.1464 25.5251 16.1464 26.4749 15.5607 27.0607C14.9749 27.6464 14.0251 27.6464 13.4393 27.0607L1.43934 15.0607C1.15803 14.7794 0.999997 14.3978 0.999998 14C0.999998 13.6022 1.15803 13.2206 1.43934 12.9393L13.4393 0.939339C14.0251 0.353553 14.9749 0.353553 15.5607 0.939339Z" stroke="black" stroke-linecap="round" stroke-linejoin="round"/>
</svg>
