<svg width="662" height="382" viewBox="0 0 662 382" fill="none" xmlns="http://www.w3.org/2000/svg">
<mask id="path-1-inside-1_2_299" fill="white">
<path fill-rule="evenodd" clip-rule="evenodd" d="M56.4281 15.7289C58.3781 16.9482 59.3531 18.8584 59.3531 21.4596V158.02C59.3531 163.304 59.8406 167.694 60.8156 171.189C61.7906 174.603 63.7406 177.367 66.6656 179.48C69.5906 181.512 73.7343 182.935 79.0968 183.748C84.5406 184.642 91.6906 185.089 100.547 185.089C113.872 185.089 126.344 182.935 137.962 178.627C149.662 174.237 159.819 167.897 168.431 159.606C177.125 151.233 183.95 140.91 188.906 128.636C193.944 116.361 196.462 102.299 196.462 86.4479C196.462 70.5971 194.106 57.1849 189.394 46.2112C184.681 35.1563 177.978 26.2148 169.284 19.3868C160.591 12.5587 150.109 7.64091 137.841 4.63332C125.653 1.54444 112.003 0 96.8906 0C83.6468 0 71.1343 0.731576 59.3531 2.19473C47.6531 3.5766 37.375 6.17776 28.5187 9.99821C19.7437 13.7374 12.7969 18.8991 7.67812 25.4832C2.55937 31.9861 0 40.318 0 50.4788C0 54.0554 0.56875 57.4287 1.70625 60.5989C2.84375 63.7691 4.50937 66.5328 6.70312 68.8901C8.89687 71.2474 11.5375 73.117 14.625 74.4989C17.7937 75.7994 21.3281 76.4497 25.2281 76.4497C27.7469 76.4497 30.2656 76.0839 32.7844 75.3524C35.3844 74.5395 37.6594 73.3609 39.6093 71.8164C41.6406 70.1907 43.2656 68.1992 44.4843 65.8419C45.7843 63.4846 46.4343 60.6802 46.4343 57.4287C46.4343 55.1527 46.1093 53.2425 45.4593 51.6981C44.8093 50.0723 43.9968 48.7718 43.0219 47.7963C42.1281 46.8209 41.1125 46.13 39.975 45.7235C38.9187 45.2358 37.9031 44.992 36.9281 44.992C35.7094 44.992 34.6125 45.3577 33.6375 46.0893C32.7437 46.7396 31.7687 47.4712 30.7125 48.284C29.6562 49.0156 28.4781 49.7472 27.1781 50.4788C25.8781 51.1291 24.2125 51.4542 22.1812 51.4542C21.775 51.4542 21.0844 51.3729 20.1094 51.2103C19.2156 50.9665 18.3219 50.4788 17.4281 49.7472C16.5344 48.9343 15.7219 47.7557 14.9906 46.2112C14.3406 44.6668 14.0156 42.594 14.0156 39.9928C14.0156 36.2537 15.0312 32.799 17.0625 29.6288C19.175 26.3774 21.9375 23.6137 25.35 21.3376C28.7625 18.9803 32.6219 17.1514 36.9281 15.8508C41.2343 14.469 45.6625 13.778 50.2125 13.778C52.4875 13.778 54.5593 14.4283 56.4281 15.7289ZM102.619 169.116C100.587 167.084 99.5718 163.751 99.5718 159.118V26.7025C99.5718 20.6061 100.75 16.3792 103.106 14.0219C105.462 11.6646 109.281 10.4859 114.562 10.4859C116.756 10.4859 119.234 10.8517 121.997 11.5833C124.841 12.2336 127.725 13.5748 130.65 15.607C133.575 17.5578 136.419 20.3216 139.181 23.8982C142.025 27.3935 144.544 31.9861 146.737 37.6762C148.931 43.2849 150.678 50.1536 151.978 58.2823C153.359 66.3296 154.05 75.8807 154.05 86.9357C154.05 103.437 152.994 117.133 150.881 128.026C148.769 138.918 145.844 147.656 142.106 154.241C138.369 160.744 133.9 165.336 128.7 168.019C123.581 170.701 117.975 172.042 111.881 172.042C107.819 172.042 104.731 171.067 102.619 169.116Z"/>
<path d="M259.959 175.213C260.365 173.668 260.569 172.368 260.569 171.311V75.962C260.569 74.1737 260.406 72.1009 260.081 69.7436C259.837 67.3863 259.025 65.1916 257.644 63.1594C256.262 61.046 254.109 59.2983 251.184 57.9165C248.259 56.4533 244.156 55.7217 238.875 55.7217C235.462 55.7217 232.212 56.0875 229.125 56.8191C226.037 57.5507 223.153 58.4855 220.472 59.6235C217.79 60.7615 215.272 62.1027 212.915 63.6471C210.64 65.1103 208.569 66.6141 206.7 68.1585L209.259 71.2068C210.397 70.3126 211.453 69.6217 212.428 69.134C213.403 68.6462 214.581 68.4024 215.962 68.4024C218.562 68.4024 220.391 69.2965 221.447 71.0848C222.584 72.7918 223.153 74.824 223.153 77.1813V171.311C223.153 172.205 223.275 173.384 223.519 174.847C223.844 176.31 224.615 177.732 225.834 179.114C227.053 180.496 228.881 181.675 231.319 182.65C233.756 183.707 237.128 184.235 241.434 184.235C245.74 184.235 249.153 183.748 251.672 182.772C254.19 181.878 256.1 180.781 257.4 179.48C258.781 178.098 259.634 176.676 259.959 175.213Z"/>
<path d="M220.837 21.4596C219.862 23.4917 219.375 25.6458 219.375 27.9218C219.375 30.2791 219.862 32.4739 220.837 34.506C221.894 36.5382 223.315 38.3265 225.103 39.8709C226.972 41.3341 229.084 42.5127 231.44 43.4069C233.878 44.301 236.519 44.7481 239.362 44.7481C242.125 44.7481 244.684 44.301 247.04 43.4069C249.478 42.5127 251.59 41.3341 253.378 39.8709C255.165 38.3265 256.547 36.5382 257.522 34.506C258.578 32.4739 259.106 30.2791 259.106 27.9218C259.106 25.6458 258.578 23.4917 257.522 21.4596C256.547 19.3461 255.165 17.5172 253.378 15.9727C251.59 14.4283 249.478 13.209 247.04 12.3149C244.684 11.4207 242.125 10.9736 239.362 10.9736C236.519 10.9736 233.878 11.4207 231.44 12.3149C229.084 13.209 226.972 14.4283 225.103 15.9727C223.315 17.5172 221.894 19.3461 220.837 21.4596Z"/>
<path d="M285.675 71.0848C286.812 72.8731 287.625 75.393 288.112 78.6445C288.762 83.3591 289.494 89.2523 290.306 96.3242C291.2 103.315 292.337 110.753 293.719 118.637C295.181 126.441 297.05 134.244 299.325 142.048C301.6 149.851 304.444 156.882 307.856 163.142C311.35 169.401 315.575 174.481 320.531 178.383C325.487 182.284 331.337 184.235 338.081 184.235C343.85 184.235 349.05 182.61 353.681 179.358C358.394 176.025 362.578 171.636 366.234 166.19C369.972 160.662 373.181 154.363 375.862 147.291C378.544 140.219 380.737 132.903 382.444 125.343C384.231 117.784 385.531 110.265 386.344 102.786C387.237 95.3081 387.684 88.4395 387.684 82.1804C387.684 77.791 387.522 73.686 387.197 69.8655C386.953 65.9638 386.465 62.8343 385.734 60.477C385.084 58.6074 384.231 57.3475 383.175 56.6972C382.119 56.0469 380.412 55.7217 378.056 55.7217C377.162 55.7217 375.984 55.8437 374.522 56.0875C373.14 56.3314 371.759 56.7378 370.378 57.3068C369.078 57.8758 367.94 58.5668 366.965 59.3796C365.99 60.1925 365.503 61.2086 365.503 62.4278C365.503 63.7284 365.869 65.2322 366.6 66.9392C367.331 68.565 368.144 70.6378 369.037 73.1576C369.931 75.6775 370.744 78.807 371.475 82.5462C372.206 86.2041 372.572 90.7155 372.572 96.0804C372.572 104.209 371.962 111.85 370.743 119.003C369.525 126.156 367.9 132.415 365.869 137.78C363.919 143.145 361.603 147.372 358.922 150.461C356.322 153.55 353.6 155.094 350.756 155.094C345.637 155.094 341.209 148.754 337.472 136.073C333.734 123.393 330.362 104.737 327.356 80.1076C327.031 77.8316 326.503 75.2711 325.772 72.4261C325.04 69.581 323.781 66.9392 321.994 64.5006C320.287 61.9808 317.931 59.908 314.925 58.2823C311.919 56.5752 307.978 55.7217 303.103 55.7217C299.69 55.7217 296.44 56.0875 293.353 56.8191C290.265 57.5507 287.381 58.4855 284.7 59.6235C282.019 60.7615 279.5 62.1027 277.144 63.6471C274.869 65.1103 272.797 66.6141 270.928 68.1585L273.365 71.2068C274.503 70.3126 275.559 69.6217 276.534 69.134C277.59 68.6462 278.809 68.4024 280.19 68.4024C282.79 68.4024 284.619 69.2965 285.675 71.0848Z"/>
<path fill-rule="evenodd" clip-rule="evenodd" d="M435.947 66.6954C438.303 66.0451 440.862 65.7199 443.625 65.7199C449.718 65.7199 454.512 67.5489 458.006 71.2068C461.581 74.7834 463.368 79.5792 463.368 85.5944C463.368 89.4962 462.272 93.3166 460.078 97.0558C457.965 100.714 454.553 103.477 449.84 105.347C443.503 107.867 437.287 110.265 431.193 112.541C425.181 114.817 419.778 117.581 414.984 120.832C410.272 124.002 406.453 127.945 403.528 132.659C400.603 137.374 399.14 143.43 399.14 150.827C399.14 156.923 399.993 162.085 401.7 166.312C403.487 170.539 405.803 173.993 408.647 176.676C411.572 179.277 414.862 181.187 418.518 182.406C422.175 183.626 425.953 184.235 429.853 184.235C432.859 184.235 435.825 183.91 438.75 183.26C441.756 182.61 444.722 181.553 447.647 180.09C450.572 178.627 453.415 176.716 456.178 174.359C459.022 172.002 461.743 169.075 464.343 165.58C465.562 171.92 468.162 176.635 472.143 179.724C476.125 182.732 480.675 184.235 485.793 184.235C489.937 184.235 493.634 183.626 496.884 182.406C500.134 181.187 502.978 179.683 505.415 177.895C507.853 176.107 509.925 174.196 511.631 172.164C513.337 170.132 514.8 168.263 516.018 166.556L512.971 163.995C511.997 165.133 510.859 166.271 509.559 167.409C508.34 168.466 507 168.994 505.537 168.994C504.318 168.994 503.384 168.75 502.734 168.263C502.084 167.775 501.596 167.165 501.272 166.434C500.947 165.702 500.743 164.889 500.662 163.995C500.581 163.101 500.54 162.288 500.54 161.556V92.6663C500.54 86.0822 499.2 80.4734 496.518 75.8401C493.918 71.2068 490.384 67.3863 485.915 64.3787C481.528 61.3711 476.45 59.1764 470.681 57.7945C464.912 56.4127 458.859 55.7217 452.522 55.7217C447.24 55.7217 441.959 56.2907 436.678 57.4287C431.397 58.4855 426.643 60.1518 422.418 62.4278C418.275 64.7039 414.903 67.6302 412.303 71.2068C409.703 74.7021 408.403 78.929 408.403 83.8874C408.403 89.0085 409.784 93.1134 412.547 96.2023C415.39 99.2912 419.087 100.836 423.637 100.836C425.344 100.836 426.968 100.551 428.512 99.9821C430.137 99.3318 431.518 98.4783 432.656 97.4216C433.875 96.2836 434.809 95.0236 435.459 93.6418C436.19 92.1786 436.556 90.5935 436.556 88.8865C436.556 86.2854 435.906 84.3751 434.606 83.1558C433.387 81.8553 432.006 80.8798 430.462 80.2295C428.918 79.498 427.497 78.8883 426.197 78.4006C424.978 77.8316 424.368 76.9374 424.368 75.7182C424.368 74.6614 424.856 73.5641 425.831 72.4261C426.806 71.2068 428.147 70.1094 429.853 69.134C431.559 68.1585 433.59 67.3457 435.947 66.6954ZM461.053 114.492C462.353 115.548 463.003 117.093 463.003 119.125V148.876C463.003 150.989 462.597 153.103 461.784 155.216C460.972 157.33 459.875 159.24 458.493 160.947C457.112 162.654 455.487 164.076 453.618 165.214C451.75 166.271 449.759 166.799 447.647 166.799C445.94 166.799 444.315 166.434 442.772 165.702C441.228 164.97 439.847 163.711 438.628 161.922C437.49 160.053 436.556 157.573 435.825 154.485C435.175 151.396 434.85 147.494 434.85 142.779C434.85 137.902 435.418 133.635 436.556 129.977C437.693 126.238 439.237 123.108 441.187 120.588C443.137 118.068 445.372 116.158 447.89 114.857C450.49 113.557 453.212 112.907 456.056 112.907C458.087 112.907 459.753 113.435 461.053 114.492Z"/>
<path d="M207.236 241.616C196.65 241.616 191.253 246.393 191.253 255.738V287.719L205.576 302.463L191.253 317.623V344.62C191.253 356.872 197.065 363.725 208.689 364.971L208.897 379.093H135.623V365.387C141.227 365.179 145.794 362.895 149.323 358.118C152.437 353.757 154.097 348.773 154.097 342.751L154.305 312.639L108.846 312.847V347.527C108.846 358.949 115.073 364.971 127.735 365.594V379.716L53.6306 378.885L53.4231 364.971C59.0276 364.348 63.8018 362.687 67.7458 359.572C72.3124 356.042 74.5957 351.888 74.5957 346.696V318.246L58.1973 302.671L74.5957 286.68L74.3882 258.437C74.3882 247.016 67.3306 240.37 55.914 241.201L55.7064 226.664L128.15 226.249V241.616C117.564 242.239 109.053 248.677 109.053 258.853L109.261 291.664H154.72V272.974L154.927 260.722C155.135 248.677 149.115 242.239 137.284 241.201V225.626L208.482 225.418L208.689 241.616H207.236Z"/>
<path d="M322.921 332.783V314.3L311.504 302.671L322.921 291.249V265.914C322.921 250.338 316.693 242.447 304.447 242.239L304.239 225.626L357.793 225.211L358.001 243.485H356.756C347.83 243.485 343.263 248.469 343.263 258.645V290.211L355.095 302.463L343.263 315.131V337.144C343.263 350.019 337.866 360.818 326.865 369.54C316.693 377.847 305.069 382 291.992 382C276.216 382 263.139 376.808 252.76 366.425C242.381 355.834 237.192 342.751 237.192 326.968V317.831L222.247 302.671L237.192 287.719V260.514C237.192 255.322 235.947 250.754 233.456 247.223C230.55 242.862 226.606 241.201 221.416 242.032V226.249L286.18 225.834V242.032C277.254 242.239 271.442 249.508 271.442 258.645V286.888L286.595 302.463L271.442 318.661V332.367C271.442 351.057 280.368 360.403 298.219 360.403C306.107 360.403 312.334 357.703 316.693 352.303C320.845 347.319 322.921 340.882 322.921 332.783Z"/>
<path d="M509.34 243.485C500.829 243.693 494.394 249.923 494.394 258.437V287.096L509.34 302.463L494.394 318.454V378.47H479.034L409.081 297.894V344.827C409.081 358.118 414.685 364.556 425.894 364.141V379.093C423.819 379.923 414.27 380.339 397.456 380.131C380.643 380.131 371.51 380.131 370.472 379.923V364.556C378.982 363.725 385.002 356.665 385.002 347.735V318.454L384.587 318.661L368.811 302.671L384.587 286.68L385.002 287.096V270.898C385.002 263.214 383.134 257.191 379.397 252.415C375.246 247.223 369.434 244.524 361.961 244.731V226.249H397.456L472.184 312.224V263.214C472.184 249.715 466.994 243.07 456.615 243.07V226.457C458.068 226.249 466.787 226.041 482.77 226.041C498.753 225.834 507.679 225.834 509.34 226.041V243.485Z"/>
<path d="M632.524 253.038L605.124 280.658L608.03 286.68L635.638 303.086L622.561 317L636.883 346.696C638.959 350.85 642.488 355.003 647.677 358.949C652.867 362.895 657.641 364.971 662 364.971V379.093L588.726 379.3L588.933 362.687C595.991 361.649 599.52 358.949 599.52 354.588C599.52 353.549 592.67 338.597 579.177 309.316L564.024 324.891V345.035C564.024 355.834 569.629 362.895 580.215 362.064V379.3C537.04 379.923 514.414 379.923 512.131 379.716V365.802C517.32 364.971 521.471 362.272 524.377 357.495C527.076 353.342 528.321 348.565 528.321 342.958V318.454L512.753 302.671L528.321 287.096V265.083C528.321 258.022 527.699 253.038 526.246 249.923C523.962 245.147 519.811 242.862 513.584 242.655V227.287L577.932 226.872V242.239C569.006 243.693 563.194 251.792 563.194 260.929V290.834L599.105 255.945C601.803 253.453 603.049 250.754 603.049 248.054C603.049 244.524 599.727 242.655 592.877 242.655L593.085 226.872H622.561C639.374 226.664 649.338 226.664 652.451 226.872V243.07H651.621C645.602 243.07 639.167 246.393 632.524 253.038Z"/>
</mask>
<path fill-rule="evenodd" clip-rule="evenodd" d="M56.4281 15.7289C58.3781 16.9482 59.3531 18.8584 59.3531 21.4596V158.02C59.3531 163.304 59.8406 167.694 60.8156 171.189C61.7906 174.603 63.7406 177.367 66.6656 179.48C69.5906 181.512 73.7343 182.935 79.0968 183.748C84.5406 184.642 91.6906 185.089 100.547 185.089C113.872 185.089 126.344 182.935 137.962 178.627C149.662 174.237 159.819 167.897 168.431 159.606C177.125 151.233 183.95 140.91 188.906 128.636C193.944 116.361 196.462 102.299 196.462 86.4479C196.462 70.5971 194.106 57.1849 189.394 46.2112C184.681 35.1563 177.978 26.2148 169.284 19.3868C160.591 12.5587 150.109 7.64091 137.841 4.63332C125.653 1.54444 112.003 0 96.8906 0C83.6468 0 71.1343 0.731576 59.3531 2.19473C47.6531 3.5766 37.375 6.17776 28.5187 9.99821C19.7437 13.7374 12.7969 18.8991 7.67812 25.4832C2.55937 31.9861 0 40.318 0 50.4788C0 54.0554 0.56875 57.4287 1.70625 60.5989C2.84375 63.7691 4.50937 66.5328 6.70312 68.8901C8.89687 71.2474 11.5375 73.117 14.625 74.4989C17.7937 75.7994 21.3281 76.4497 25.2281 76.4497C27.7469 76.4497 30.2656 76.0839 32.7844 75.3524C35.3844 74.5395 37.6594 73.3609 39.6093 71.8164C41.6406 70.1907 43.2656 68.1992 44.4843 65.8419C45.7843 63.4846 46.4343 60.6802 46.4343 57.4287C46.4343 55.1527 46.1093 53.2425 45.4593 51.6981C44.8093 50.0723 43.9968 48.7718 43.0219 47.7963C42.1281 46.8209 41.1125 46.13 39.975 45.7235C38.9187 45.2358 37.9031 44.992 36.9281 44.992C35.7094 44.992 34.6125 45.3577 33.6375 46.0893C32.7437 46.7396 31.7687 47.4712 30.7125 48.284C29.6562 49.0156 28.4781 49.7472 27.1781 50.4788C25.8781 51.1291 24.2125 51.4542 22.1812 51.4542C21.775 51.4542 21.0844 51.3729 20.1094 51.2103C19.2156 50.9665 18.3219 50.4788 17.4281 49.7472C16.5344 48.9343 15.7219 47.7557 14.9906 46.2112C14.3406 44.6668 14.0156 42.594 14.0156 39.9928C14.0156 36.2537 15.0312 32.799 17.0625 29.6288C19.175 26.3774 21.9375 23.6137 25.35 21.3376C28.7625 18.9803 32.6219 17.1514 36.9281 15.8508C41.2343 14.469 45.6625 13.778 50.2125 13.778C52.4875 13.778 54.5593 14.4283 56.4281 15.7289ZM102.619 169.116C100.587 167.084 99.5718 163.751 99.5718 159.118V26.7025C99.5718 20.6061 100.75 16.3792 103.106 14.0219C105.462 11.6646 109.281 10.4859 114.562 10.4859C116.756 10.4859 119.234 10.8517 121.997 11.5833C124.841 12.2336 127.725 13.5748 130.65 15.607C133.575 17.5578 136.419 20.3216 139.181 23.8982C142.025 27.3935 144.544 31.9861 146.737 37.6762C148.931 43.2849 150.678 50.1536 151.978 58.2823C153.359 66.3296 154.05 75.8807 154.05 86.9357C154.05 103.437 152.994 117.133 150.881 128.026C148.769 138.918 145.844 147.656 142.106 154.241C138.369 160.744 133.9 165.336 128.7 168.019C123.581 170.701 117.975 172.042 111.881 172.042C107.819 172.042 104.731 171.067 102.619 169.116Z" fill="white"/>
<path d="M259.959 175.213C260.365 173.668 260.569 172.368 260.569 171.311V75.962C260.569 74.1737 260.406 72.1009 260.081 69.7436C259.837 67.3863 259.025 65.1916 257.644 63.1594C256.262 61.046 254.109 59.2983 251.184 57.9165C248.259 56.4533 244.156 55.7217 238.875 55.7217C235.462 55.7217 232.212 56.0875 229.125 56.8191C226.037 57.5507 223.153 58.4855 220.472 59.6235C217.79 60.7615 215.272 62.1027 212.915 63.6471C210.64 65.1103 208.569 66.6141 206.7 68.1585L209.259 71.2068C210.397 70.3126 211.453 69.6217 212.428 69.134C213.403 68.6462 214.581 68.4024 215.962 68.4024C218.562 68.4024 220.391 69.2965 221.447 71.0848C222.584 72.7918 223.153 74.824 223.153 77.1813V171.311C223.153 172.205 223.275 173.384 223.519 174.847C223.844 176.31 224.615 177.732 225.834 179.114C227.053 180.496 228.881 181.675 231.319 182.65C233.756 183.707 237.128 184.235 241.434 184.235C245.74 184.235 249.153 183.748 251.672 182.772C254.19 181.878 256.1 180.781 257.4 179.48C258.781 178.098 259.634 176.676 259.959 175.213Z" fill="white"/>
<path d="M220.837 21.4596C219.862 23.4917 219.375 25.6458 219.375 27.9218C219.375 30.2791 219.862 32.4739 220.837 34.506C221.894 36.5382 223.315 38.3265 225.103 39.8709C226.972 41.3341 229.084 42.5127 231.44 43.4069C233.878 44.301 236.519 44.7481 239.362 44.7481C242.125 44.7481 244.684 44.301 247.04 43.4069C249.478 42.5127 251.59 41.3341 253.378 39.8709C255.165 38.3265 256.547 36.5382 257.522 34.506C258.578 32.4739 259.106 30.2791 259.106 27.9218C259.106 25.6458 258.578 23.4917 257.522 21.4596C256.547 19.3461 255.165 17.5172 253.378 15.9727C251.59 14.4283 249.478 13.209 247.04 12.3149C244.684 11.4207 242.125 10.9736 239.362 10.9736C236.519 10.9736 233.878 11.4207 231.44 12.3149C229.084 13.209 226.972 14.4283 225.103 15.9727C223.315 17.5172 221.894 19.3461 220.837 21.4596Z" fill="white"/>
<path d="M285.675 71.0848C286.812 72.8731 287.625 75.393 288.112 78.6445C288.762 83.3591 289.494 89.2523 290.306 96.3242C291.2 103.315 292.337 110.753 293.719 118.637C295.181 126.441 297.05 134.244 299.325 142.048C301.6 149.851 304.444 156.882 307.856 163.142C311.35 169.401 315.575 174.481 320.531 178.383C325.487 182.284 331.337 184.235 338.081 184.235C343.85 184.235 349.05 182.61 353.681 179.358C358.394 176.025 362.578 171.636 366.234 166.19C369.972 160.662 373.181 154.363 375.862 147.291C378.544 140.219 380.737 132.903 382.444 125.343C384.231 117.784 385.531 110.265 386.344 102.786C387.237 95.3081 387.684 88.4395 387.684 82.1804C387.684 77.791 387.522 73.686 387.197 69.8655C386.953 65.9638 386.465 62.8343 385.734 60.477C385.084 58.6074 384.231 57.3475 383.175 56.6972C382.119 56.0469 380.412 55.7217 378.056 55.7217C377.162 55.7217 375.984 55.8437 374.522 56.0875C373.14 56.3314 371.759 56.7378 370.378 57.3068C369.078 57.8758 367.94 58.5668 366.965 59.3796C365.99 60.1925 365.503 61.2086 365.503 62.4278C365.503 63.7284 365.869 65.2322 366.6 66.9392C367.331 68.565 368.144 70.6378 369.037 73.1576C369.931 75.6775 370.744 78.807 371.475 82.5462C372.206 86.2041 372.572 90.7155 372.572 96.0804C372.572 104.209 371.962 111.85 370.743 119.003C369.525 126.156 367.9 132.415 365.869 137.78C363.919 143.145 361.603 147.372 358.922 150.461C356.322 153.55 353.6 155.094 350.756 155.094C345.637 155.094 341.209 148.754 337.472 136.073C333.734 123.393 330.362 104.737 327.356 80.1076C327.031 77.8316 326.503 75.2711 325.772 72.4261C325.04 69.581 323.781 66.9392 321.994 64.5006C320.287 61.9808 317.931 59.908 314.925 58.2823C311.919 56.5752 307.978 55.7217 303.103 55.7217C299.69 55.7217 296.44 56.0875 293.353 56.8191C290.265 57.5507 287.381 58.4855 284.7 59.6235C282.019 60.7615 279.5 62.1027 277.144 63.6471C274.869 65.1103 272.797 66.6141 270.928 68.1585L273.365 71.2068C274.503 70.3126 275.559 69.6217 276.534 69.134C277.59 68.6462 278.809 68.4024 280.19 68.4024C282.79 68.4024 284.619 69.2965 285.675 71.0848Z" fill="white"/>
<path fill-rule="evenodd" clip-rule="evenodd" d="M435.947 66.6954C438.303 66.0451 440.862 65.7199 443.625 65.7199C449.718 65.7199 454.512 67.5489 458.006 71.2068C461.581 74.7834 463.368 79.5792 463.368 85.5944C463.368 89.4962 462.272 93.3166 460.078 97.0558C457.965 100.714 454.553 103.477 449.84 105.347C443.503 107.867 437.287 110.265 431.193 112.541C425.181 114.817 419.778 117.581 414.984 120.832C410.272 124.002 406.453 127.945 403.528 132.659C400.603 137.374 399.14 143.43 399.14 150.827C399.14 156.923 399.993 162.085 401.7 166.312C403.487 170.539 405.803 173.993 408.647 176.676C411.572 179.277 414.862 181.187 418.518 182.406C422.175 183.626 425.953 184.235 429.853 184.235C432.859 184.235 435.825 183.91 438.75 183.26C441.756 182.61 444.722 181.553 447.647 180.09C450.572 178.627 453.415 176.716 456.178 174.359C459.022 172.002 461.743 169.075 464.343 165.58C465.562 171.92 468.162 176.635 472.143 179.724C476.125 182.732 480.675 184.235 485.793 184.235C489.937 184.235 493.634 183.626 496.884 182.406C500.134 181.187 502.978 179.683 505.415 177.895C507.853 176.107 509.925 174.196 511.631 172.164C513.337 170.132 514.8 168.263 516.018 166.556L512.971 163.995C511.997 165.133 510.859 166.271 509.559 167.409C508.34 168.466 507 168.994 505.537 168.994C504.318 168.994 503.384 168.75 502.734 168.263C502.084 167.775 501.596 167.165 501.272 166.434C500.947 165.702 500.743 164.889 500.662 163.995C500.581 163.101 500.54 162.288 500.54 161.556V92.6663C500.54 86.0822 499.2 80.4734 496.518 75.8401C493.918 71.2068 490.384 67.3863 485.915 64.3787C481.528 61.3711 476.45 59.1764 470.681 57.7945C464.912 56.4127 458.859 55.7217 452.522 55.7217C447.24 55.7217 441.959 56.2907 436.678 57.4287C431.397 58.4855 426.643 60.1518 422.418 62.4278C418.275 64.7039 414.903 67.6302 412.303 71.2068C409.703 74.7021 408.403 78.929 408.403 83.8874C408.403 89.0085 409.784 93.1134 412.547 96.2023C415.39 99.2912 419.087 100.836 423.637 100.836C425.344 100.836 426.968 100.551 428.512 99.9821C430.137 99.3318 431.518 98.4783 432.656 97.4216C433.875 96.2836 434.809 95.0236 435.459 93.6418C436.19 92.1786 436.556 90.5935 436.556 88.8865C436.556 86.2854 435.906 84.3751 434.606 83.1558C433.387 81.8553 432.006 80.8798 430.462 80.2295C428.918 79.498 427.497 78.8883 426.197 78.4006C424.978 77.8316 424.368 76.9374 424.368 75.7182C424.368 74.6614 424.856 73.5641 425.831 72.4261C426.806 71.2068 428.147 70.1094 429.853 69.134C431.559 68.1585 433.59 67.3457 435.947 66.6954ZM461.053 114.492C462.353 115.548 463.003 117.093 463.003 119.125V148.876C463.003 150.989 462.597 153.103 461.784 155.216C460.972 157.33 459.875 159.24 458.493 160.947C457.112 162.654 455.487 164.076 453.618 165.214C451.75 166.271 449.759 166.799 447.647 166.799C445.94 166.799 444.315 166.434 442.772 165.702C441.228 164.97 439.847 163.711 438.628 161.922C437.49 160.053 436.556 157.573 435.825 154.485C435.175 151.396 434.85 147.494 434.85 142.779C434.85 137.902 435.418 133.635 436.556 129.977C437.693 126.238 439.237 123.108 441.187 120.588C443.137 118.068 445.372 116.158 447.89 114.857C450.49 113.557 453.212 112.907 456.056 112.907C458.087 112.907 459.753 113.435 461.053 114.492Z" fill="white"/>
<path d="M207.236 241.616C196.65 241.616 191.253 246.393 191.253 255.738V287.719L205.576 302.463L191.253 317.623V344.62C191.253 356.872 197.065 363.725 208.689 364.971L208.897 379.093H135.623V365.387C141.227 365.179 145.794 362.895 149.323 358.118C152.437 353.757 154.097 348.773 154.097 342.751L154.305 312.639L108.846 312.847V347.527C108.846 358.949 115.073 364.971 127.735 365.594V379.716L53.6306 378.885L53.4231 364.971C59.0276 364.348 63.8018 362.687 67.7458 359.572C72.3124 356.042 74.5957 351.888 74.5957 346.696V318.246L58.1973 302.671L74.5957 286.68L74.3882 258.437C74.3882 247.016 67.3306 240.37 55.914 241.201L55.7064 226.664L128.15 226.249V241.616C117.564 242.239 109.053 248.677 109.053 258.853L109.261 291.664H154.72V272.974L154.927 260.722C155.135 248.677 149.115 242.239 137.284 241.201V225.626L208.482 225.418L208.689 241.616H207.236Z" fill="white"/>
<path d="M322.921 332.783V314.3L311.504 302.671L322.921 291.249V265.914C322.921 250.338 316.693 242.447 304.447 242.239L304.239 225.626L357.793 225.211L358.001 243.485H356.756C347.83 243.485 343.263 248.469 343.263 258.645V290.211L355.095 302.463L343.263 315.131V337.144C343.263 350.019 337.866 360.818 326.865 369.54C316.693 377.847 305.069 382 291.992 382C276.216 382 263.139 376.808 252.76 366.425C242.381 355.834 237.192 342.751 237.192 326.968V317.831L222.247 302.671L237.192 287.719V260.514C237.192 255.322 235.947 250.754 233.456 247.223C230.55 242.862 226.606 241.201 221.416 242.032V226.249L286.18 225.834V242.032C277.254 242.239 271.442 249.508 271.442 258.645V286.888L286.595 302.463L271.442 318.661V332.367C271.442 351.057 280.368 360.403 298.219 360.403C306.107 360.403 312.334 357.703 316.693 352.303C320.845 347.319 322.921 340.882 322.921 332.783Z" fill="white"/>
<path d="M509.34 243.485C500.829 243.693 494.394 249.923 494.394 258.437V287.096L509.34 302.463L494.394 318.454V378.47H479.034L409.081 297.894V344.827C409.081 358.118 414.685 364.556 425.894 364.141V379.093C423.819 379.923 414.27 380.339 397.456 380.131C380.643 380.131 371.51 380.131 370.472 379.923V364.556C378.982 363.725 385.002 356.665 385.002 347.735V318.454L384.587 318.661L368.811 302.671L384.587 286.68L385.002 287.096V270.898C385.002 263.214 383.134 257.191 379.397 252.415C375.246 247.223 369.434 244.524 361.961 244.731V226.249H397.456L472.184 312.224V263.214C472.184 249.715 466.994 243.07 456.615 243.07V226.457C458.068 226.249 466.787 226.041 482.77 226.041C498.753 225.834 507.679 225.834 509.34 226.041V243.485Z" fill="white"/>
<path d="M632.524 253.038L605.124 280.658L608.03 286.68L635.638 303.086L622.561 317L636.883 346.696C638.959 350.85 642.488 355.003 647.677 358.949C652.867 362.895 657.641 364.971 662 364.971V379.093L588.726 379.3L588.933 362.687C595.991 361.649 599.52 358.949 599.52 354.588C599.52 353.549 592.67 338.597 579.177 309.316L564.024 324.891V345.035C564.024 355.834 569.629 362.895 580.215 362.064V379.3C537.04 379.923 514.414 379.923 512.131 379.716V365.802C517.32 364.971 521.471 362.272 524.377 357.495C527.076 353.342 528.321 348.565 528.321 342.958V318.454L512.753 302.671L528.321 287.096V265.083C528.321 258.022 527.699 253.038 526.246 249.923C523.962 245.147 519.811 242.862 513.584 242.655V227.287L577.932 226.872V242.239C569.006 243.693 563.194 251.792 563.194 260.929V290.834L599.105 255.945C601.803 253.453 603.049 250.754 603.049 248.054C603.049 244.524 599.727 242.655 592.877 242.655L593.085 226.872H622.561C639.374 226.664 649.338 226.664 652.451 226.872V243.07H651.621C645.602 243.07 639.167 246.393 632.524 253.038Z" fill="white"/>
<path fill-rule="evenodd" clip-rule="evenodd" d="M56.4281 15.7289C58.3781 16.9482 59.3531 18.8584 59.3531 21.4596V158.02C59.3531 163.304 59.8406 167.694 60.8156 171.189C61.7906 174.603 63.7406 177.367 66.6656 179.48C69.5906 181.512 73.7343 182.935 79.0968 183.748C84.5406 184.642 91.6906 185.089 100.547 185.089C113.872 185.089 126.344 182.935 137.962 178.627C149.662 174.237 159.819 167.897 168.431 159.606C177.125 151.233 183.95 140.91 188.906 128.636C193.944 116.361 196.462 102.299 196.462 86.4479C196.462 70.5971 194.106 57.1849 189.394 46.2112C184.681 35.1563 177.978 26.2148 169.284 19.3868C160.591 12.5587 150.109 7.64091 137.841 4.63332C125.653 1.54444 112.003 0 96.8906 0C83.6468 0 71.1343 0.731576 59.3531 2.19473C47.6531 3.5766 37.375 6.17776 28.5187 9.99821C19.7437 13.7374 12.7969 18.8991 7.67812 25.4832C2.55937 31.9861 0 40.318 0 50.4788C0 54.0554 0.56875 57.4287 1.70625 60.5989C2.84375 63.7691 4.50937 66.5328 6.70312 68.8901C8.89687 71.2474 11.5375 73.117 14.625 74.4989C17.7937 75.7994 21.3281 76.4497 25.2281 76.4497C27.7469 76.4497 30.2656 76.0839 32.7844 75.3524C35.3844 74.5395 37.6594 73.3609 39.6093 71.8164C41.6406 70.1907 43.2656 68.1992 44.4843 65.8419C45.7843 63.4846 46.4343 60.6802 46.4343 57.4287C46.4343 55.1527 46.1093 53.2425 45.4593 51.6981C44.8093 50.0723 43.9968 48.7718 43.0219 47.7963C42.1281 46.8209 41.1125 46.13 39.975 45.7235C38.9187 45.2358 37.9031 44.992 36.9281 44.992C35.7094 44.992 34.6125 45.3577 33.6375 46.0893C32.7437 46.7396 31.7687 47.4712 30.7125 48.284C29.6562 49.0156 28.4781 49.7472 27.1781 50.4788C25.8781 51.1291 24.2125 51.4542 22.1812 51.4542C21.775 51.4542 21.0844 51.3729 20.1094 51.2103C19.2156 50.9665 18.3219 50.4788 17.4281 49.7472C16.5344 48.9343 15.7219 47.7557 14.9906 46.2112C14.3406 44.6668 14.0156 42.594 14.0156 39.9928C14.0156 36.2537 15.0312 32.799 17.0625 29.6288C19.175 26.3774 21.9375 23.6137 25.35 21.3376C28.7625 18.9803 32.6219 17.1514 36.9281 15.8508C41.2343 14.469 45.6625 13.778 50.2125 13.778C52.4875 13.778 54.5593 14.4283 56.4281 15.7289ZM102.619 169.116C100.587 167.084 99.5718 163.751 99.5718 159.118V26.7025C99.5718 20.6061 100.75 16.3792 103.106 14.0219C105.462 11.6646 109.281 10.4859 114.562 10.4859C116.756 10.4859 119.234 10.8517 121.997 11.5833C124.841 12.2336 127.725 13.5748 130.65 15.607C133.575 17.5578 136.419 20.3216 139.181 23.8982C142.025 27.3935 144.544 31.9861 146.737 37.6762C148.931 43.2849 150.678 50.1536 151.978 58.2823C153.359 66.3296 154.05 75.8807 154.05 86.9357C154.05 103.437 152.994 117.133 150.881 128.026C148.769 138.918 145.844 147.656 142.106 154.241C138.369 160.744 133.9 165.336 128.7 168.019C123.581 170.701 117.975 172.042 111.881 172.042C107.819 172.042 104.731 171.067 102.619 169.116Z" stroke="white" stroke-width="2" mask="url(#path-1-inside-1_2_299)"/>
<path d="M259.959 175.213C260.365 173.668 260.569 172.368 260.569 171.311V75.962C260.569 74.1737 260.406 72.1009 260.081 69.7436C259.837 67.3863 259.025 65.1916 257.644 63.1594C256.262 61.046 254.109 59.2983 251.184 57.9165C248.259 56.4533 244.156 55.7217 238.875 55.7217C235.462 55.7217 232.212 56.0875 229.125 56.8191C226.037 57.5507 223.153 58.4855 220.472 59.6235C217.79 60.7615 215.272 62.1027 212.915 63.6471C210.64 65.1103 208.569 66.6141 206.7 68.1585L209.259 71.2068C210.397 70.3126 211.453 69.6217 212.428 69.134C213.403 68.6462 214.581 68.4024 215.962 68.4024C218.562 68.4024 220.391 69.2965 221.447 71.0848C222.584 72.7918 223.153 74.824 223.153 77.1813V171.311C223.153 172.205 223.275 173.384 223.519 174.847C223.844 176.31 224.615 177.732 225.834 179.114C227.053 180.496 228.881 181.675 231.319 182.65C233.756 183.707 237.128 184.235 241.434 184.235C245.74 184.235 249.153 183.748 251.672 182.772C254.19 181.878 256.1 180.781 257.4 179.48C258.781 178.098 259.634 176.676 259.959 175.213Z" stroke="white" stroke-width="2" mask="url(#path-1-inside-1_2_299)"/>
<path d="M220.837 21.4596C219.862 23.4917 219.375 25.6458 219.375 27.9218C219.375 30.2791 219.862 32.4739 220.837 34.506C221.894 36.5382 223.315 38.3265 225.103 39.8709C226.972 41.3341 229.084 42.5127 231.44 43.4069C233.878 44.301 236.519 44.7481 239.362 44.7481C242.125 44.7481 244.684 44.301 247.04 43.4069C249.478 42.5127 251.59 41.3341 253.378 39.8709C255.165 38.3265 256.547 36.5382 257.522 34.506C258.578 32.4739 259.106 30.2791 259.106 27.9218C259.106 25.6458 258.578 23.4917 257.522 21.4596C256.547 19.3461 255.165 17.5172 253.378 15.9727C251.59 14.4283 249.478 13.209 247.04 12.3149C244.684 11.4207 242.125 10.9736 239.362 10.9736C236.519 10.9736 233.878 11.4207 231.44 12.3149C229.084 13.209 226.972 14.4283 225.103 15.9727C223.315 17.5172 221.894 19.3461 220.837 21.4596Z" stroke="white" stroke-width="2" mask="url(#path-1-inside-1_2_299)"/>
<path d="M285.675 71.0848C286.812 72.8731 287.625 75.393 288.112 78.6445C288.762 83.3591 289.494 89.2523 290.306 96.3242C291.2 103.315 292.337 110.753 293.719 118.637C295.181 126.441 297.05 134.244 299.325 142.048C301.6 149.851 304.444 156.882 307.856 163.142C311.35 169.401 315.575 174.481 320.531 178.383C325.487 182.284 331.337 184.235 338.081 184.235C343.85 184.235 349.05 182.61 353.681 179.358C358.394 176.025 362.578 171.636 366.234 166.19C369.972 160.662 373.181 154.363 375.862 147.291C378.544 140.219 380.737 132.903 382.444 125.343C384.231 117.784 385.531 110.265 386.344 102.786C387.237 95.3081 387.684 88.4395 387.684 82.1804C387.684 77.791 387.522 73.686 387.197 69.8655C386.953 65.9638 386.465 62.8343 385.734 60.477C385.084 58.6074 384.231 57.3475 383.175 56.6972C382.119 56.0469 380.412 55.7217 378.056 55.7217C377.162 55.7217 375.984 55.8437 374.522 56.0875C373.14 56.3314 371.759 56.7378 370.378 57.3068C369.078 57.8758 367.94 58.5668 366.965 59.3796C365.99 60.1925 365.503 61.2086 365.503 62.4278C365.503 63.7284 365.869 65.2322 366.6 66.9392C367.331 68.565 368.144 70.6378 369.037 73.1576C369.931 75.6775 370.744 78.807 371.475 82.5462C372.206 86.2041 372.572 90.7155 372.572 96.0804C372.572 104.209 371.962 111.85 370.743 119.003C369.525 126.156 367.9 132.415 365.869 137.78C363.919 143.145 361.603 147.372 358.922 150.461C356.322 153.55 353.6 155.094 350.756 155.094C345.637 155.094 341.209 148.754 337.472 136.073C333.734 123.393 330.362 104.737 327.356 80.1076C327.031 77.8316 326.503 75.2711 325.772 72.4261C325.04 69.581 323.781 66.9392 321.994 64.5006C320.287 61.9808 317.931 59.908 314.925 58.2823C311.919 56.5752 307.978 55.7217 303.103 55.7217C299.69 55.7217 296.44 56.0875 293.353 56.8191C290.265 57.5507 287.381 58.4855 284.7 59.6235C282.019 60.7615 279.5 62.1027 277.144 63.6471C274.869 65.1103 272.797 66.6141 270.928 68.1585L273.365 71.2068C274.503 70.3126 275.559 69.6217 276.534 69.134C277.59 68.6462 278.809 68.4024 280.19 68.4024C282.79 68.4024 284.619 69.2965 285.675 71.0848Z" stroke="white" stroke-width="2" mask="url(#path-1-inside-1_2_299)"/>
<path fill-rule="evenodd" clip-rule="evenodd" d="M435.947 66.6954C438.303 66.0451 440.862 65.7199 443.625 65.7199C449.718 65.7199 454.512 67.5489 458.006 71.2068C461.581 74.7834 463.368 79.5792 463.368 85.5944C463.368 89.4962 462.272 93.3166 460.078 97.0558C457.965 100.714 454.553 103.477 449.84 105.347C443.503 107.867 437.287 110.265 431.193 112.541C425.181 114.817 419.778 117.581 414.984 120.832C410.272 124.002 406.453 127.945 403.528 132.659C400.603 137.374 399.14 143.43 399.14 150.827C399.14 156.923 399.993 162.085 401.7 166.312C403.487 170.539 405.803 173.993 408.647 176.676C411.572 179.277 414.862 181.187 418.518 182.406C422.175 183.626 425.953 184.235 429.853 184.235C432.859 184.235 435.825 183.91 438.75 183.26C441.756 182.61 444.722 181.553 447.647 180.09C450.572 178.627 453.415 176.716 456.178 174.359C459.022 172.002 461.743 169.075 464.343 165.58C465.562 171.92 468.162 176.635 472.143 179.724C476.125 182.732 480.675 184.235 485.793 184.235C489.937 184.235 493.634 183.626 496.884 182.406C500.134 181.187 502.978 179.683 505.415 177.895C507.853 176.107 509.925 174.196 511.631 172.164C513.337 170.132 514.8 168.263 516.018 166.556L512.971 163.995C511.997 165.133 510.859 166.271 509.559 167.409C508.34 168.466 507 168.994 505.537 168.994C504.318 168.994 503.384 168.75 502.734 168.263C502.084 167.775 501.596 167.165 501.272 166.434C500.947 165.702 500.743 164.889 500.662 163.995C500.581 163.101 500.54 162.288 500.54 161.556V92.6663C500.54 86.0822 499.2 80.4734 496.518 75.8401C493.918 71.2068 490.384 67.3863 485.915 64.3787C481.528 61.3711 476.45 59.1764 470.681 57.7945C464.912 56.4127 458.859 55.7217 452.522 55.7217C447.24 55.7217 441.959 56.2907 436.678 57.4287C431.397 58.4855 426.643 60.1518 422.418 62.4278C418.275 64.7039 414.903 67.6302 412.303 71.2068C409.703 74.7021 408.403 78.929 408.403 83.8874C408.403 89.0085 409.784 93.1134 412.547 96.2023C415.39 99.2912 419.087 100.836 423.637 100.836C425.344 100.836 426.968 100.551 428.512 99.9821C430.137 99.3318 431.518 98.4783 432.656 97.4216C433.875 96.2836 434.809 95.0236 435.459 93.6418C436.19 92.1786 436.556 90.5935 436.556 88.8865C436.556 86.2854 435.906 84.3751 434.606 83.1558C433.387 81.8553 432.006 80.8798 430.462 80.2295C428.918 79.498 427.497 78.8883 426.197 78.4006C424.978 77.8316 424.368 76.9374 424.368 75.7182C424.368 74.6614 424.856 73.5641 425.831 72.4261C426.806 71.2068 428.147 70.1094 429.853 69.134C431.559 68.1585 433.59 67.3457 435.947 66.6954ZM461.053 114.492C462.353 115.548 463.003 117.093 463.003 119.125V148.876C463.003 150.989 462.597 153.103 461.784 155.216C460.972 157.33 459.875 159.24 458.493 160.947C457.112 162.654 455.487 164.076 453.618 165.214C451.75 166.271 449.759 166.799 447.647 166.799C445.94 166.799 444.315 166.434 442.772 165.702C441.228 164.97 439.847 163.711 438.628 161.922C437.49 160.053 436.556 157.573 435.825 154.485C435.175 151.396 434.85 147.494 434.85 142.779C434.85 137.902 435.418 133.635 436.556 129.977C437.693 126.238 439.237 123.108 441.187 120.588C443.137 118.068 445.372 116.158 447.89 114.857C450.49 113.557 453.212 112.907 456.056 112.907C458.087 112.907 459.753 113.435 461.053 114.492Z" stroke="white" stroke-width="2" mask="url(#path-1-inside-1_2_299)"/>
<path d="M207.236 241.616C196.65 241.616 191.253 246.393 191.253 255.738V287.719L205.576 302.463L191.253 317.623V344.62C191.253 356.872 197.065 363.725 208.689 364.971L208.897 379.093H135.623V365.387C141.227 365.179 145.794 362.895 149.323 358.118C152.437 353.757 154.097 348.773 154.097 342.751L154.305 312.639L108.846 312.847V347.527C108.846 358.949 115.073 364.971 127.735 365.594V379.716L53.6306 378.885L53.4231 364.971C59.0276 364.348 63.8018 362.687 67.7458 359.572C72.3124 356.042 74.5957 351.888 74.5957 346.696V318.246L58.1973 302.671L74.5957 286.68L74.3882 258.437C74.3882 247.016 67.3306 240.37 55.914 241.201L55.7064 226.664L128.15 226.249V241.616C117.564 242.239 109.053 248.677 109.053 258.853L109.261 291.664H154.72V272.974L154.927 260.722C155.135 248.677 149.115 242.239 137.284 241.201V225.626L208.482 225.418L208.689 241.616H207.236Z" stroke="white" stroke-width="2" mask="url(#path-1-inside-1_2_299)"/>
<path d="M322.921 332.783V314.3L311.504 302.671L322.921 291.249V265.914C322.921 250.338 316.693 242.447 304.447 242.239L304.239 225.626L357.793 225.211L358.001 243.485H356.756C347.83 243.485 343.263 248.469 343.263 258.645V290.211L355.095 302.463L343.263 315.131V337.144C343.263 350.019 337.866 360.818 326.865 369.54C316.693 377.847 305.069 382 291.992 382C276.216 382 263.139 376.808 252.76 366.425C242.381 355.834 237.192 342.751 237.192 326.968V317.831L222.247 302.671L237.192 287.719V260.514C237.192 255.322 235.947 250.754 233.456 247.223C230.55 242.862 226.606 241.201 221.416 242.032V226.249L286.18 225.834V242.032C277.254 242.239 271.442 249.508 271.442 258.645V286.888L286.595 302.463L271.442 318.661V332.367C271.442 351.057 280.368 360.403 298.219 360.403C306.107 360.403 312.334 357.703 316.693 352.303C320.845 347.319 322.921 340.882 322.921 332.783Z" stroke="white" stroke-width="2" mask="url(#path-1-inside-1_2_299)"/>
<path d="M509.34 243.485C500.829 243.693 494.394 249.923 494.394 258.437V287.096L509.34 302.463L494.394 318.454V378.47H479.034L409.081 297.894V344.827C409.081 358.118 414.685 364.556 425.894 364.141V379.093C423.819 379.923 414.27 380.339 397.456 380.131C380.643 380.131 371.51 380.131 370.472 379.923V364.556C378.982 363.725 385.002 356.665 385.002 347.735V318.454L384.587 318.661L368.811 302.671L384.587 286.68L385.002 287.096V270.898C385.002 263.214 383.134 257.191 379.397 252.415C375.246 247.223 369.434 244.524 361.961 244.731V226.249H397.456L472.184 312.224V263.214C472.184 249.715 466.994 243.07 456.615 243.07V226.457C458.068 226.249 466.787 226.041 482.77 226.041C498.753 225.834 507.679 225.834 509.34 226.041V243.485Z" stroke="white" stroke-width="2" mask="url(#path-1-inside-1_2_299)"/>
<path d="M632.524 253.038L605.124 280.658L608.03 286.68L635.638 303.086L622.561 317L636.883 346.696C638.959 350.85 642.488 355.003 647.677 358.949C652.867 362.895 657.641 364.971 662 364.971V379.093L588.726 379.3L588.933 362.687C595.991 361.649 599.52 358.949 599.52 354.588C599.52 353.549 592.67 338.597 579.177 309.316L564.024 324.891V345.035C564.024 355.834 569.629 362.895 580.215 362.064V379.3C537.04 379.923 514.414 379.923 512.131 379.716V365.802C517.32 364.971 521.471 362.272 524.377 357.495C527.076 353.342 528.321 348.565 528.321 342.958V318.454L512.753 302.671L528.321 287.096V265.083C528.321 258.022 527.699 253.038 526.246 249.923C523.962 245.147 519.811 242.862 513.584 242.655V227.287L577.932 226.872V242.239C569.006 243.693 563.194 251.792 563.194 260.929V290.834L599.105 255.945C601.803 253.453 603.049 250.754 603.049 248.054C603.049 244.524 599.727 242.655 592.877 242.655L593.085 226.872H622.561C639.374 226.664 649.338 226.664 652.451 226.872V243.07H651.621C645.602 243.07 639.167 246.393 632.524 253.038Z" stroke="white" stroke-width="2" mask="url(#path-1-inside-1_2_299)"/>
</svg>
