<svg width="63" height="36" viewBox="0 0 63 36" fill="none" xmlns="http://www.w3.org/2000/svg">
<path fill-rule="evenodd" clip-rule="evenodd" d="M5.37004 1.4823C5.55562 1.59721 5.64841 1.77723 5.64841 2.02237V14.892C5.64841 15.3899 5.6948 15.8036 5.78759 16.133C5.88037 16.4547 6.06595 16.7152 6.34431 16.9143C6.62267 17.1059 7.01701 17.2399 7.52734 17.3165C8.0454 17.4008 8.72584 17.4429 9.56865 17.4429C10.8367 17.4429 12.0236 17.2399 13.1294 16.8339C14.2428 16.4202 15.2093 15.8227 16.0289 15.0414C16.8563 14.2523 17.5058 13.2795 17.9775 12.1227C18.4569 10.966 18.6966 9.64072 18.6966 8.14692C18.6966 6.65313 18.4723 5.38915 18.0239 4.35499C17.5754 3.31316 16.9375 2.47051 16.1101 1.82703C15.2828 1.18354 14.2853 0.720086 13.1178 0.436648C11.9579 0.145549 10.6589 0 9.2207 0C7.96035 0 6.76958 0.0689443 5.64841 0.206833C4.53496 0.337061 3.55683 0.582197 2.71402 0.94224C1.87894 1.29462 1.21783 1.78106 0.730697 2.40156C0.243566 3.0144 0 3.7996 0 4.75716C0 5.09422 0.0541257 5.41213 0.162377 5.71089C0.270629 6.00965 0.42914 6.27011 0.63791 6.49226C0.846681 6.71442 1.09798 6.89061 1.3918 7.02083C1.69336 7.1434 2.02971 7.20469 2.40086 7.20469C2.64056 7.20469 2.88026 7.17021 3.11996 7.10127C3.36739 7.02466 3.5839 6.91359 3.76947 6.76804C3.96278 6.61483 4.11742 6.42715 4.2334 6.20499C4.35712 5.98284 4.41898 5.71855 4.41898 5.41213C4.41898 5.19764 4.38805 5.01762 4.32619 4.87207C4.26433 4.71886 4.18701 4.59629 4.09422 4.50437C4.00917 4.41244 3.91252 4.34733 3.80427 4.30902C3.70375 4.26306 3.60709 4.24008 3.51431 4.24008C3.39832 4.24008 3.29394 4.27455 3.20115 4.34349C3.1161 4.40478 3.02331 4.47372 2.92279 4.55033C2.82227 4.61927 2.71015 4.68822 2.58644 4.75716C2.46272 4.81844 2.30421 4.84909 2.1109 4.84909C2.07224 4.84909 2.00652 4.84143 1.91373 4.82611C1.82868 4.80312 1.74362 4.75716 1.65857 4.68822C1.57351 4.61161 1.49619 4.50054 1.4266 4.35499C1.36474 4.20944 1.33381 4.01409 1.33381 3.76896C1.33381 3.41658 1.43047 3.09101 1.62377 2.79225C1.82481 2.48583 2.08771 2.22537 2.41246 2.01088C2.73722 1.78872 3.1045 1.61636 3.51431 1.49379C3.92411 1.36357 4.34552 1.29845 4.77853 1.29845C4.99503 1.29845 5.1922 1.35974 5.37004 1.4823ZM9.76583 15.9376C9.57252 15.7461 9.47587 15.432 9.47587 14.9954V2.51647C9.47587 1.94193 9.58799 1.54359 9.81222 1.32143C10.0365 1.09928 10.3999 0.988203 10.9025 0.988203C11.1112 0.988203 11.3471 1.02267 11.61 1.09162C11.8806 1.1529 12.1551 1.2793 12.4335 1.47081C12.7118 1.65466 12.9824 1.91512 13.2453 2.25218C13.516 2.58158 13.7557 3.0144 13.9644 3.55063C14.1732 4.07921 14.3394 4.72652 14.4632 5.49257C14.5946 6.25096 14.6603 7.15106 14.6603 8.19289C14.6603 9.74797 14.5598 11.0388 14.3588 12.0653C14.1577 13.0918 13.8794 13.9153 13.5237 14.5358C13.168 15.1486 12.7427 15.5814 12.2479 15.8342C11.7607 16.087 11.2272 16.2134 10.6473 16.2134C10.2607 16.2134 9.96687 16.1215 9.76583 15.9376Z" fill="white"/>
<path d="M24.7393 16.5122C24.778 16.3666 24.7973 16.2441 24.7973 16.1445V7.15872C24.7973 6.99019 24.7818 6.79485 24.7509 6.5727C24.7277 6.35054 24.6504 6.14371 24.519 5.9522C24.3875 5.75302 24.1826 5.58832 23.9042 5.4581C23.6259 5.32021 23.2354 5.25126 22.7328 5.25126C22.408 5.25126 22.0988 5.28573 21.8049 5.35468C21.5111 5.42362 21.2366 5.51172 20.9815 5.61897C20.7263 5.72621 20.4866 5.85261 20.2624 5.99816C20.0458 6.13605 19.8487 6.27777 19.6708 6.42332L19.9144 6.71058C20.0227 6.62632 20.1232 6.5612 20.216 6.51524C20.3087 6.46928 20.4209 6.4463 20.5523 6.4463C20.7997 6.4463 20.9737 6.53056 21.0742 6.69909C21.1825 6.85996 21.2366 7.05148 21.2366 7.27363V16.1445C21.2366 16.2287 21.2482 16.3398 21.2714 16.4777C21.3023 16.6156 21.3758 16.7496 21.4918 16.8799C21.6078 17.0101 21.7817 17.1212 22.0137 17.2131C22.2457 17.3127 22.5666 17.3625 22.9764 17.3625C23.3862 17.3625 23.7109 17.3165 23.9506 17.2246C24.1903 17.1403 24.372 17.0369 24.4958 16.9143C24.6272 16.7841 24.7084 16.6501 24.7393 16.5122Z" fill="white"/>
<path d="M21.0162 2.02237C20.9235 2.21388 20.8771 2.41688 20.8771 2.63138C20.8771 2.85353 20.9235 3.06036 21.0162 3.25188C21.1168 3.44339 21.2521 3.61192 21.4222 3.75747C21.6 3.89536 21.8011 4.00643 22.0253 4.0907C22.2573 4.17496 22.5086 4.2171 22.7792 4.2171C23.0421 4.2171 23.2857 4.17496 23.5099 4.0907C23.7419 4.00643 23.9429 3.89536 24.113 3.75747C24.2831 3.61192 24.4146 3.44339 24.5074 3.25188C24.6079 3.06036 24.6581 2.85353 24.6581 2.63138C24.6581 2.41688 24.6079 2.21388 24.5074 2.02237C24.4146 1.8232 24.2831 1.65083 24.113 1.50529C23.9429 1.35974 23.7419 1.24483 23.5099 1.16056C23.2857 1.0763 23.0421 1.03417 22.7792 1.03417C22.5086 1.03417 22.2573 1.0763 22.0253 1.16056C21.8011 1.24483 21.6 1.35974 21.4222 1.50529C21.2521 1.65083 21.1168 1.8232 21.0162 2.02237Z" fill="white"/>
<path d="M27.1866 6.69909C27.2948 6.86762 27.3722 7.1051 27.4185 7.41152C27.4804 7.85583 27.55 8.41121 27.6273 9.07767C27.7124 9.73647 27.8206 10.4374 27.9521 11.1805C28.0912 11.9159 28.2691 12.6513 28.4856 13.3867C28.7021 14.1221 28.9727 14.7847 29.2975 15.3746C29.63 15.9644 30.032 16.4432 30.5037 16.8109C30.9754 17.1786 31.5321 17.3625 32.1739 17.3625C32.7229 17.3625 33.2177 17.2093 33.6585 16.9029C34.1069 16.5888 34.5052 16.1751 34.8531 15.6619C35.2088 15.1409 35.5142 14.5473 35.7694 13.8808C36.0245 13.2143 36.2333 12.5249 36.3957 11.8125C36.5658 11.1 36.6895 10.3914 36.7668 9.68668C36.8519 8.98192 36.8944 8.33461 36.8944 7.74475C36.8944 7.33108 36.879 6.94423 36.848 6.58419C36.8248 6.21648 36.7784 5.92156 36.7088 5.6994C36.647 5.52321 36.5658 5.40447 36.4653 5.34319C36.3648 5.2819 36.2024 5.25126 35.9781 5.25126C35.8931 5.25126 35.781 5.26275 35.6418 5.28573C35.5103 5.30872 35.3789 5.34702 35.2474 5.40064C35.1237 5.45427 35.0155 5.51938 34.9227 5.59598C34.8299 5.67259 34.7835 5.76834 34.7835 5.88325C34.7835 6.00582 34.8183 6.14754 34.8879 6.30841C34.9575 6.46162 35.0348 6.65696 35.1199 6.89444C35.2049 7.13191 35.2822 7.42684 35.3518 7.77922C35.4214 8.12394 35.4562 8.5491 35.4562 9.05469C35.4562 9.82074 35.3982 10.5408 35.2822 11.2149C35.1663 11.8891 35.0116 12.4789 34.8183 12.9845C34.6327 13.4901 34.4124 13.8885 34.1572 14.1796C33.9098 14.4707 33.6507 14.6162 33.3801 14.6162C32.893 14.6162 32.4716 14.0187 32.1159 12.8237C31.7602 11.6286 31.4393 9.87053 31.1532 7.54941C31.1223 7.33491 31.072 7.09361 31.0024 6.82549C30.9329 6.55737 30.813 6.30841 30.6429 6.07859C30.4805 5.84112 30.2563 5.64578 29.9702 5.49257C29.6841 5.3317 29.3091 5.25126 28.8451 5.25126C28.5204 5.25126 28.2111 5.28573 27.9173 5.35468C27.6234 5.42362 27.349 5.51172 27.0938 5.61897C26.8386 5.72621 26.5989 5.85261 26.3747 5.99816C26.1582 6.13605 25.961 6.27777 25.7832 6.42332L26.0151 6.71058C26.1234 6.62632 26.2239 6.5612 26.3167 6.51524C26.4172 6.46928 26.5332 6.4463 26.6647 6.4463C26.9121 6.4463 27.0861 6.53056 27.1866 6.69909Z" fill="white"/>
<path fill-rule="evenodd" clip-rule="evenodd" d="M41.4874 6.28543C41.7116 6.22414 41.9552 6.1935 42.2181 6.1935C42.798 6.1935 43.2542 6.36586 43.5867 6.71058C43.9269 7.04765 44.097 7.49961 44.097 8.06649C44.097 8.43419 43.9926 8.79424 43.7838 9.14662C43.5828 9.49134 43.258 9.7518 42.8096 9.92799C42.2065 10.1655 41.6149 10.3914 41.035 10.6059C40.4628 10.8204 39.9486 11.0809 39.4924 11.3873C39.044 11.6861 38.6806 12.0576 38.4022 12.5019C38.1238 12.9462 37.9847 13.5169 37.9847 14.214C37.9847 14.7886 38.0658 15.275 38.2282 15.6734C38.3983 16.0717 38.6187 16.3973 38.8893 16.6501C39.1677 16.8952 39.4809 17.0752 39.8288 17.1901C40.1768 17.305 40.5363 17.3625 40.9074 17.3625C41.1935 17.3625 41.4758 17.3318 41.7541 17.2706C42.0402 17.2093 42.3224 17.1097 42.6008 16.9718C42.8792 16.8339 43.1498 16.6539 43.4127 16.4317C43.6833 16.2096 43.9424 15.9338 44.1898 15.6044C44.3058 16.2019 44.5532 16.6462 44.9321 16.9373C45.311 17.2208 45.744 17.3625 46.2311 17.3625C46.6254 17.3625 46.9773 17.305 47.2866 17.1901C47.5958 17.0752 47.8665 16.9335 48.0984 16.765C48.3304 16.5964 48.5276 16.4164 48.6899 16.2249C48.8523 16.0334 48.9915 15.8572 49.1075 15.6963L48.8175 15.455C48.7247 15.5623 48.6165 15.6695 48.4928 15.7768C48.3768 15.8764 48.2492 15.9261 48.11 15.9261C47.994 15.9261 47.9051 15.9032 47.8433 15.8572C47.7814 15.8112 47.735 15.7538 47.7041 15.6848C47.6732 15.6159 47.6538 15.5393 47.6461 15.455C47.6384 15.3708 47.6345 15.2942 47.6345 15.2252V8.73295C47.6345 8.11245 47.5069 7.58388 47.2518 7.14723C47.0043 6.71058 46.668 6.35054 46.2427 6.0671C45.8252 5.78367 45.3419 5.57683 44.7929 5.4466C44.2439 5.31638 43.6679 5.25126 43.0647 5.25126C42.5621 5.25126 42.0596 5.30489 41.557 5.41213C41.0544 5.51172 40.602 5.66876 40.1999 5.88325C39.8056 6.09775 39.4847 6.37352 39.2373 6.71058C38.9899 7.03999 38.8661 7.43833 38.8661 7.90562C38.8661 8.38823 38.9976 8.77508 39.2605 9.06618C39.5311 9.35728 39.8829 9.50283 40.3159 9.50283C40.4783 9.50283 40.6329 9.47602 40.7799 9.4224C40.9345 9.36111 41.066 9.28068 41.1742 9.18109C41.2902 9.07384 41.3791 8.95511 41.441 8.82488C41.5106 8.68699 41.5454 8.53761 41.5454 8.37674C41.5454 8.1316 41.4835 7.95158 41.3598 7.83668C41.2438 7.71411 41.1124 7.62218 40.9654 7.5609C40.8185 7.49195 40.6832 7.4345 40.5595 7.38854C40.4435 7.33491 40.3855 7.25065 40.3855 7.13574C40.3855 7.03616 40.4319 6.93274 40.5247 6.82549C40.6175 6.71058 40.7451 6.60717 40.9074 6.51524C41.0698 6.42332 41.2631 6.34671 41.4874 6.28543ZM43.8766 10.7898C44.0003 10.8894 44.0622 11.0349 44.0622 11.2264V14.0302C44.0622 14.2293 44.0235 14.4285 43.9462 14.6277C43.8689 14.8269 43.7645 15.0069 43.6331 15.1678C43.5016 15.3286 43.347 15.4627 43.1691 15.5699C42.9913 15.6695 42.8018 15.7193 42.6008 15.7193C42.4384 15.7193 42.2838 15.6848 42.1369 15.6159C41.99 15.547 41.8585 15.4282 41.7425 15.2597C41.6343 15.0835 41.5454 14.8498 41.4758 14.5588C41.4139 14.2677 41.383 13.8999 41.383 13.4556C41.383 12.996 41.4371 12.5938 41.5454 12.2491C41.6536 11.8967 41.8005 11.6018 41.9861 11.3643C42.1717 11.1269 42.3843 10.9468 42.624 10.8243C42.8714 10.7017 43.1305 10.6404 43.4011 10.6404C43.5944 10.6404 43.7529 10.6902 43.8766 10.7898Z" fill="white"/>
<path d="M19.7219 22.7701C18.7144 22.7701 18.2008 23.2203 18.2008 24.1009V27.1148L19.5639 28.5044L18.2008 29.933V32.4773C18.2008 33.6319 18.7539 34.2778 19.8602 34.3952L19.8799 35.726H12.9067V34.4343C13.4401 34.4148 13.8747 34.1995 14.2105 33.7494C14.5068 33.3384 14.6648 32.8687 14.6648 32.3011L14.6846 29.4633L10.3584 29.4829V32.7512C10.3584 33.8276 10.9511 34.3952 12.1561 34.4539V35.7847L5.10382 35.7064L5.08407 34.3952C5.61743 34.3365 6.07177 34.1799 6.4471 33.8863C6.8817 33.5536 7.09899 33.1622 7.09899 32.673V29.9918L5.53841 28.5239L7.09899 27.017L7.07924 24.3554C7.07924 23.279 6.4076 22.6527 5.32112 22.731L5.30136 21.361L12.1956 21.3219V22.7701C11.1881 22.8288 10.3782 23.4355 10.3782 24.3945L10.3979 27.4867H14.7241V25.7253L14.7438 24.5706C14.7636 23.4355 14.1907 22.8288 13.0647 22.731V21.2632L19.8404 21.2436L19.8602 22.7701H19.7219Z" fill="white"/>
<path d="M30.7311 31.3617V29.6199L29.6446 28.5239L30.7311 27.4476V25.0599C30.7311 23.5921 30.1385 22.8484 28.973 22.8288L28.9533 21.2632L34.0498 21.224L34.0696 22.9463H33.9511C33.1016 22.9463 32.667 23.416 32.667 24.3749V27.3497L33.793 28.5044L32.667 29.6982V31.7727C32.667 32.9861 32.1534 34.0038 31.1065 34.8258C30.1385 35.6086 29.0323 36 27.7878 36C26.2864 36 25.0419 35.5107 24.0542 34.5322C23.0665 33.5341 22.5727 32.3011 22.5727 30.8137V29.9526L21.1504 28.5239L22.5727 27.1148V24.5511C22.5727 24.0618 22.4541 23.6312 22.2171 23.2985C21.9405 22.8876 21.5652 22.731 21.0713 22.8093V21.3219L27.2346 21.2827V22.8093C26.3852 22.8288 25.8321 23.5138 25.8321 24.3749V27.0366L27.2742 28.5044L25.8321 30.0309V31.3226C25.8321 33.0839 26.6815 33.9646 28.3804 33.9646C29.131 33.9646 29.7237 33.7102 30.1385 33.2014C30.5336 32.7317 30.7311 32.125 30.7311 31.3617Z" fill="white"/>
<path d="M48.4719 22.9463C47.662 22.9658 47.0496 23.553 47.0496 24.3554V27.0561L48.4719 28.5044L47.0496 30.0113V35.6673H45.5878L38.9306 28.0738V32.4968C38.9306 33.7494 39.464 34.356 40.5307 34.3169V35.726C40.3332 35.8043 39.4245 35.8434 37.8244 35.8239C36.2243 35.8239 35.3551 35.8239 35.2564 35.8043V34.356C36.0663 34.2778 36.6392 33.6124 36.6392 32.7708V30.0113L36.5997 30.0309L35.0983 28.5239L36.5997 27.017L36.6392 27.0561V25.5296C36.6392 24.8055 36.4614 24.2379 36.1058 23.7878C35.7107 23.2985 35.1576 23.0441 34.4464 23.0637V21.3219H37.8244L44.9359 29.4242V24.8055C44.9359 23.5334 44.442 22.9071 43.4543 22.9071V21.3415C43.5926 21.3219 44.4223 21.3023 45.9434 21.3023C47.4644 21.2827 48.3139 21.2827 48.4719 21.3023V22.9463Z" fill="white"/>
<path d="M60.1949 23.8465L57.5874 26.4494L57.8639 27.017L60.4912 28.5631L59.2467 29.8743L60.6097 32.673C60.8073 33.0644 61.1431 33.4558 61.637 33.8276C62.1308 34.1995 62.5852 34.3952 63 34.3952V35.726L56.0268 35.7456L56.0465 34.1799C56.7182 34.0821 57.054 33.8276 57.054 33.4166C57.054 33.3188 56.4021 31.9097 55.1181 29.1502L53.676 30.618V32.5164C53.676 33.5341 54.2094 34.1995 55.2169 34.1212V35.7456C51.108 35.8043 48.9548 35.8043 48.7375 35.7847V34.4735C49.2313 34.3952 49.6264 34.1408 49.903 33.6906C50.1598 33.2992 50.2783 32.8491 50.2783 32.3207V30.0113L48.7968 28.5239L50.2783 27.0561V24.9816C50.2783 24.3162 50.2191 23.8465 50.0808 23.553C49.8635 23.1028 49.4684 22.8876 48.8758 22.868V21.4197L54.9996 21.3806V22.8288C54.1501 22.9658 53.597 23.7291 53.597 24.5902V27.4084L57.0145 24.1205C57.2713 23.8857 57.3898 23.6312 57.3898 23.3768C57.3898 23.0441 57.0738 22.868 56.4219 22.868L56.4416 21.3806H59.2467C60.8468 21.361 61.795 21.361 62.0913 21.3806V22.9071H62.0123C61.4394 22.9071 60.827 23.2203 60.1949 23.8465Z" fill="white"/>
</svg>
