<svg width="58" height="57" viewBox="0 0 58 57" fill="none" xmlns="http://www.w3.org/2000/svg">
<path d="M5.32918 0C2.50239 0 0.161377 2.34102 0.161377 5.16781V51.6781C0.161377 54.5049 2.50239 56.8459 5.32918 56.8459H51.8394C54.6662 56.8459 57.0073 54.5049 57.0073 51.6781V5.16781C57.0073 2.34102 54.6662 0 51.8394 0H5.32918ZM5.32918 5.16781H51.8394V51.6781H38.4342V34.2367H45.1368L46.1058 26.485H38.4367V21.4774C38.4367 19.2191 38.9897 17.6842 42.2299 17.6842H46.4288V10.6586C45.713 10.5682 43.2299 10.4157 40.3747 10.4157C34.4188 10.4157 30.362 13.9996 30.362 20.6712V26.485H23.5793V34.2367H30.3595V51.6781H5.32918V5.16781Z" fill="white"/>
</svg>
