<svg width="430" height="819" viewBox="0 0 430 819" fill="none" xmlns="http://www.w3.org/2000/svg">
<g clip-path="url(#clip0_3_35)">
<rect width="430" height="819" fill="white"/>
<g clip-path="url(#clip1_3_35)">
<path d="M66.874 168.273C72.5803 170.798 73.8745 175.285 73.7653 180.757C73.6308 186.987 71.7651 192.879 70.7987 198.949C70.5213 200.734 70.1179 202.502 69.7482 204.404C94.6829 217.941 114.155 236.066 120.601 265.016C122.122 264.899 122.61 263.754 123.416 263.063C131.316 256.329 140.292 252.119 150.83 251.96C154.923 251.939 158.961 252.912 162.596 254.797C169.798 258.391 173.521 264.436 173.673 272.29C173.908 287.898 168.723 301.645 158.335 313.355C157.06 314.841 155.71 316.263 154.293 317.614C149.973 321.596 144.99 324.256 139.065 324.82C137.544 327.843 137.107 331.067 136.132 334.081C132.912 344.303 126.799 353.369 118.534 360.178C115.094 363.051 111.62 365.882 108.113 368.672C100.112 375.002 90.8843 378.403 80.9003 379.944C78.6901 380.289 76.4714 380.592 74.1183 380.937C84.4216 394.314 87.9681 410.267 91.7667 426.068C93.164 431.662 93.4722 437.472 92.6744 443.183C91.4978 451.239 87.5647 457.906 81.892 463.631C76.0512 469.524 69.328 474.339 62.6888 479.264C61.4198 480.207 60.2684 481.444 58.2346 481.983C58.5372 479.836 60.0415 479.23 61.1676 478.397C67.3278 473.775 73.5552 469.229 79.1523 463.909C84.7494 458.588 89.0774 452.502 90.565 444.749C91.4775 439.916 91.5259 434.959 90.7078 430.109C88.47 416.277 84.2526 402.84 78.1858 390.214C74.2779 382.141 72.6728 381.619 63.63 382.848C56.016 383.884 48.3515 385.045 40.6702 383.353C35.4008 382.2 30.8711 379.986 28.6692 374.59C27.2825 371.223 27.8288 367.704 28.0473 364.227C28.1825 363.539 28.3536 362.859 28.56 362.19C29.4004 357.223 28.8961 356.204 24.3579 354.083C21.5258 352.761 20.9963 351.557 22.3158 348.939C23.4657 346.781 24.9945 344.847 26.8287 343.231C24.7866 341.994 22.5343 341.607 20.7358 340.234C16.4413 336.943 15.8278 334.055 18.7861 329.493C20.2988 327.169 22.0384 324.997 23.5932 322.851C23.2822 321.504 22.2737 321.285 21.3829 320.931C17.8952 319.542 15.2144 317.076 12.8192 314.306C9.78534 310.795 9.57524 307.849 12.1889 304.01C14.595 300.736 17.2803 297.677 20.2148 294.868C23.736 291.256 27.4926 287.864 30.35 283.663C31.9216 281.356 33.5099 279.058 34.1486 276.247C34.9529 273.127 34.6865 269.827 33.3923 266.877C30.8711 261.221 30.0196 254.961 30.9383 248.836C30.9383 248.558 31.1736 248.264 31.1148 247.994C29.9298 243.423 31.0139 238.861 31.5014 234.079C27.5431 233.33 23.7276 233.978 20.0551 232.968C18.0381 232.42 15.9875 231.991 14.0126 231.284C1.46534 226.797 -4.04771 215.87 -0.16504 203.167C1.70484 197.265 4.9816 191.908 9.38195 187.559C18.7777 177.912 30.4509 172.473 43.3679 169.468C49.4944 168.045 55.6966 167.01 62.0417 167.666C63.294 167.867 64.5761 167.594 65.6386 166.9C75.8411 159.989 87.4303 156.95 99.3976 155.115C113.381 152.981 127.545 152.282 141.67 153.027C148.502 153.364 155.385 153.338 162.184 154.34C170.084 155.541 177.715 158.105 184.741 161.917C187.178 163.23 189.556 164.653 192.22 166.176C193.343 160.481 195.167 154.947 197.649 149.702C202.927 139.153 210.457 130.339 218.937 122.317C225.064 116.334 231.691 110.887 238.745 106.036C245.897 101.262 253.435 97.331 262.041 95.9335C268.283 94.9896 274.629 94.9499 280.883 95.8157C286.018 96.4555 290.926 95.8157 295.884 95.0412C305.431 93.61 314.776 91.194 324.222 89.2662C333.971 87.2458 343.737 85.5705 353.763 86.1009C356.425 86.1545 359.048 86.7652 361.461 87.894C364.974 89.6618 367.058 92.4483 367.066 96.5481C367.066 99.0736 367.159 101.599 366.1 104.268C370.377 103.788 374.361 103.426 378.294 104.647C383.45 106.118 388.012 109.182 391.329 113.402C394.421 117.367 393.396 120.279 388.463 121.138C379.941 122.611 372.1 120.389 364.848 115.952C362.217 114.353 361.267 111.819 362.629 108.275C358.175 112.265 358.133 115.632 362.083 118.798C365.789 121.778 370.251 123.007 374.79 123.967C377.408 124.433 379.971 125.169 382.437 126.164C386.446 127.923 386.858 130.373 383.883 133.639C381.908 135.82 379.202 137.125 377.067 139.17C386.227 151.293 390.11 165.267 391.606 179.839C392.286 185.799 392.141 191.825 391.177 197.745C390.855 200.398 389.898 202.934 388.387 205.137C387.48 206.34 387.547 207.586 387.547 209.051C387.597 216.527 391.572 222.015 396.413 227.016C400.203 230.93 404.347 234.517 408.271 238.313C410.115 240.031 411.839 241.873 413.431 243.827C416.793 248.146 416.398 250.89 411.902 253.972C409.599 255.554 407.069 256.792 404.674 258.24C402.993 259.258 401.313 260.327 400.825 262.575C402.044 264.68 403.212 266.911 404.59 269.007C405.162 269.804 405.495 270.748 405.548 271.728C405.602 272.708 405.374 273.683 404.893 274.538C403.753 277.115 401.749 279.211 399.229 280.464C398.102 281.003 396.926 281.449 395.379 282.106C397.447 284.37 399.279 286.652 399.968 289.573C400.657 292.494 401.825 295.592 398.388 297.84C397.926 298.143 397.766 299.06 397.632 299.725C397.249 301.654 396.501 303.491 395.43 305.138C393.648 307.807 393.564 310.602 394.27 313.557C394.767 315.306 395.077 317.104 395.195 318.919C395.245 323.903 392.774 327.388 388.312 329.526C384.11 331.555 379.63 331.479 375.143 330.848C368.764 329.947 362.536 328.146 356.351 326.555C354.726 326.139 353.099 325.741 351.468 325.359C347.46 324.391 344.401 325.587 342.081 329.08C339.916 332.181 337.951 335.418 336.198 338.77C331.072 349.074 326.954 359.748 324.727 371.088C323.458 377.494 323.886 383.951 324.248 390.349C324.709 397.609 325.835 404.812 327.609 411.866C331.198 426.422 340.215 436.566 353.166 443.519C360.002 447.084 367.049 450.227 374.268 452.931C375.848 453.537 377.773 453.832 378.571 455.642C378.168 456.24 377.731 456.248 377.37 456.08C368.789 452.317 359.864 449.345 351.695 444.664C346.059 441.537 340.934 437.562 336.501 432.879C330.5 426.38 327.542 418.424 325.517 410.056C322.896 399.299 321.765 388.232 322.155 377.166C322.306 372.957 323.357 368.882 324.441 364.816C327.379 353.711 331.785 343.049 337.543 333.113C339.346 329.721 341.762 326.696 344.669 324.189C343.812 323.425 342.741 322.943 341.602 322.808C330.752 319.938 320.197 316.385 310.507 310.593C298.851 303.648 290.959 294.001 288.354 280.464C287.284 274.628 284.296 269.318 279.866 265.378C276.656 262.457 273.647 259.317 270.395 256.438C261.747 248.786 257.108 239.02 254.738 227.891C253.25 220.896 252.628 214.06 255.578 207.325C260.453 196.247 268.789 188.999 280.37 185.791C282.875 185.05 285.522 184.933 288.082 185.449C290.642 185.966 293.037 187.1 295.06 188.754C298.322 191.433 301.219 194.529 303.675 197.964C304.515 199.067 305.271 200.22 306.322 201.71C310.692 197.737 315.003 194.007 319.104 190.059C327.803 181.641 335.072 172.061 342.568 162.624C346.224 158.011 349.897 153.414 353.721 148.952C357.082 145.013 360.814 141.376 365.545 139.01C368.002 137.616 370.877 137.152 373.647 137.705C374.487 137.899 375.218 138.211 376.025 137.638C379.076 135.475 382.395 133.597 384.286 130.121C383.311 127.932 381.404 127.427 379.513 126.922C375.874 125.928 372.21 125.053 368.587 123.984C365.6 123.19 362.845 121.692 360.553 119.614C356.149 115.405 356.351 110.935 361.133 107.18C362.528 106.078 364.36 105.438 364.713 103.316C365.167 100.58 366.226 97.9623 365.352 95.058C364.987 93.6309 364.266 92.3203 363.256 91.2496C362.246 90.1789 360.98 89.3833 359.578 88.9379C354.41 87.1279 349.149 87.2542 343.821 87.8014C330.299 89.2409 317.138 92.5662 303.876 95.3779C294.154 97.5042 284.152 98.033 274.26 96.9437C266.058 96.0009 258.116 97.9034 250.595 101.313C245.238 103.748 240.183 106.802 235.535 110.413C224.862 118.663 214.878 127.62 206.658 138.404C200.179 146.89 195.641 156.217 193.926 167.229C196.145 168.997 198.548 170.865 200.91 172.785C214.793 184.107 225.441 198.04 233.904 213.732C240.787 226.519 245.788 240.005 248.065 254.359C251.166 273.898 249.746 292.873 240.106 310.652C238.072 314.331 235.787 317.864 233.266 321.226C232.52 322.232 232.008 323.391 231.766 324.62C231.525 325.85 231.561 327.117 231.87 328.331C234.143 339.874 235.152 351.631 234.879 363.393C234.35 379.068 231.593 394.255 224.088 408.263C220.758 414.596 216.51 420.401 211.482 425.487C209.342 427.716 206.853 429.578 204.112 431.001C197.347 434.369 191.926 431.776 190.102 424.41C189.159 420.304 189.005 416.055 189.649 411.892C191.153 400.864 194.59 390.391 198.893 380.154C206.507 361.87 216.163 344.679 227.013 328.163C227.906 326.869 228.502 325.394 228.76 323.842C229.017 322.291 228.928 320.702 228.5 319.189C224.695 302.274 219.622 285.67 213.323 269.52C209.093 258.548 204.493 247.736 199.523 237.084C196.078 229.659 194.321 221.721 192.859 213.749C191.171 204.809 190.327 195.731 190.338 186.633C190.333 181.597 190.755 176.57 191.598 171.606C191.993 169.325 191.514 167.784 189.296 166.429C178.948 159.907 167.126 156.106 154.923 155.376C143.157 154.711 131.392 154.298 119.626 154.795C104.785 155.418 90.0775 157.177 76.1856 163.045C72.8702 164.379 69.7405 166.136 66.874 168.273V168.273ZM381.109 211.678C377.899 211.257 375.285 210.078 373.882 206.82C372.747 204.177 373.689 202.173 376.336 199.715C372.05 200.911 368.772 201.491 366.251 203.798C368.444 207.317 371.554 210.272 374.722 211.139C376.739 211.694 378.84 213.21 381.076 211.627L382.109 211.332C381.538 211.038 381.319 211.358 381.109 211.678V211.678ZM55.8227 244.433C55.8356 244.542 55.8668 244.647 55.9151 244.745C55.9151 244.795 56.0664 244.787 56.1504 244.812L55.7975 244.45C53.4107 241.495 50.4609 239.281 46.553 239.93C42.4116 240.704 38.5071 242.433 35.1487 244.981C34.3083 245.604 33.2578 246.269 33.4007 247.616C35.7874 249.299 35.8042 249.299 37.3422 248.415C37.9417 248.062 38.5047 247.651 39.023 247.186C44.0402 242.758 49.4524 240.746 55.8227 244.433ZM69.7818 206.551C68.3363 210.583 68.6388 214.237 68.58 217.857C68.3293 226.037 70.8796 234.058 75.8075 240.586C77.1757 242.359 78.385 244.249 79.4212 246.235C81.7071 250.806 80.749 255.1 76.7571 258.223C74.7488 259.738 72.6464 261.125 70.4625 262.373C64.5797 265.875 58.596 269.293 53.4107 273.839C44.41 281.752 37.1741 290.819 34.5352 302.891C32.9251 310.587 32.8766 318.528 34.3924 326.243C36.6944 339.095 41.5964 351.339 48.7969 362.223C52.184 367.557 56.4658 372.265 61.4534 376.139C64.9494 378.765 68.7313 380.289 73.219 379.043C74.3298 378.852 75.4537 378.748 76.5806 378.732C83.6905 377.89 90.6574 376.501 97.1789 373.378C105.633 369.328 112.516 363.141 119.408 356.987C127.498 349.745 133.171 340.189 135.661 329.611C136.031 328.12 136.501 326.656 136.938 325.174C137.101 324.418 137.53 323.746 138.148 323.282C138.766 322.818 139.53 322.593 140.3 322.649C145.2 322.497 149.082 319.913 152.553 316.815C156.971 312.912 160.756 308.345 163.773 303.278C168.327 295.378 171.122 286.584 171.966 277.501C173.715 261.464 163.134 254.199 152.225 253.778C141.317 253.357 132.375 257.524 124.391 264.52C123.235 265.413 122.357 266.62 121.863 267.997C121.369 269.373 121.278 270.863 121.601 272.29C122.778 279.325 123.091 286.477 122.534 293.588C122.021 301.269 120.449 308.842 117.861 316.091C116.799 319.144 115.193 321.979 113.121 324.458C111.953 325.805 110.525 326.689 108.701 326.268C106.877 325.848 106.465 324.357 106.02 322.825C105.203 319.696 105.04 316.432 105.541 313.237C106.18 308.11 106.869 302.975 107.902 297.915C109.978 287.746 112.424 277.711 118.475 268.956C119.214 267.895 119.063 266.953 118.861 265.808C117.832 260.021 116.058 254.393 113.584 249.064C108.541 238.12 100.877 229.339 92.0441 221.435C85.3099 215.522 77.8241 210.529 69.7818 206.585V206.551ZM307.179 203.116C308.599 205.987 309.7 208.243 310.826 210.507C312.986 214.744 314.488 219.286 315.281 223.977C316.079 229.163 316.121 234.323 313.759 239.189C311.364 244.189 306.482 245.435 301.91 242.228C299.587 240.617 297.861 238.282 297.002 235.586C295.43 230.804 295.598 225.922 296.481 221.064C297.606 215.439 299.969 210.136 303.397 205.541C304.238 204.354 305.078 203.285 304.095 201.769C300.817 196.659 297.187 191.869 291.858 188.712C289.475 187.19 286.641 186.536 283.833 186.86C271.101 188.544 259.217 199.21 255.931 211.686C254.721 216.299 255.259 220.803 256.007 225.391C257.931 237.244 262.73 247.548 271.857 255.579C273.857 257.33 275.765 259.191 277.79 260.908C284.513 266.624 288.984 273.485 290.606 282.392C291.985 289.968 296.052 296.392 301.683 301.754C307.249 306.895 313.664 311.028 320.642 313.969C329.24 317.774 338.291 320.148 347.334 322.59C353.132 324.155 358.116 322.96 362.847 319.786C364.844 318.488 366.692 316.975 368.36 315.274C382.723 300.171 387.715 282.148 383.773 261.944C380.294 244.156 371.235 229.482 357.04 218.05C354.334 215.83 351.766 213.446 349.351 210.912C345.623 207.079 343.101 202.235 342.098 196.979C341.257 192.77 341.442 188.628 341.316 184.444C341.039 175.041 344.426 166.951 350.09 159.661C355.385 152.833 362.041 147.513 369.016 142.538C370.277 141.645 371.537 140.77 373.277 139.574C369.234 138.892 366.495 140.172 363.881 141.906C360.452 144.342 357.345 147.205 354.637 150.426C349.199 156.462 344.409 163.053 339.367 169.401C330.92 180.058 322.205 190.447 311.633 199.151C310.154 200.363 308.759 201.727 307.179 203.15V203.116ZM230.761 321.419C242.846 306.687 247.569 289.926 247.905 271.861C248.011 264.015 247.121 256.188 245.258 248.567C239.123 222.051 225.375 197.914 205.709 179.132C202.09 175.447 198.014 172.241 193.582 169.594C192.865 173.404 192.402 177.256 192.195 181.127C191.792 190.782 192.355 200.452 193.876 209.994C195.347 218.682 197.103 227.327 200.599 235.485C202.919 240.881 205.448 246.193 207.784 251.581C215.576 269.398 222.037 287.769 227.114 306.544C228.45 311.343 229.517 316.242 230.761 321.419ZM389.959 188.106C386.771 189.104 383.329 188.894 380.286 187.517C374.201 185.109 367.923 185.623 361.646 185.884C359.83 185.968 358.032 186.33 356.225 186.414C354.864 186.481 353.376 186.557 352.628 184.916C352.939 183.148 354.418 182.516 355.738 181.784C361.053 178.96 366.723 176.864 372.596 175.554C374.384 175.164 376.247 175.313 377.949 175.984C381.231 177.176 384.34 178.801 387.194 180.816C388.034 181.405 388.673 182.5 389.934 182.356C390.598 170.2 382.118 146.25 375.033 140.484C369.243 144.096 363.795 148.229 358.755 152.833C355.215 156.02 352.054 159.604 349.334 163.516C343.602 172.052 342.207 181.439 342.955 191.541C343.703 201.643 348.376 208.95 356.023 214.91C357.704 216.198 359.141 217.722 360.746 219.119C372.184 228.834 379.555 241.134 383.883 255.386C386.397 263.331 387.233 271.714 386.337 280.001C391.329 275.388 397.136 272.214 401.901 267.702C401.245 266.633 400.792 265.934 400.38 265.176C398.766 262.314 398.985 260.664 401.414 258.56C402.495 257.67 403.65 256.876 404.868 256.186C406.784 255.032 408.834 254.081 410.675 252.818C414.541 250.2 414.759 248.205 411.902 244.56C408.414 240.123 403.985 236.655 399.926 232.774C393.346 226.536 386.933 220.231 385.698 209.885C383.353 213.631 380.319 213.984 377.159 213.454C374.731 213.074 372.411 212.181 370.355 210.832C368.298 209.483 366.553 207.711 365.234 205.633C363.805 203.503 364.1 202.46 366.461 201.331C369.959 199.563 373.739 198.424 377.63 197.964C383.748 197.366 384.883 197.964 387.488 203.647C389.659 198.773 390.511 193.414 389.959 188.106ZM26.4001 353.409C30.9131 355.093 31.224 358.157 30.1735 361.828C29.8626 362.888 29.9718 364.075 29.6861 365.144C27.77 372.275 31.1316 379.666 40.3592 381.56C46.3513 382.798 52.3434 382.293 58.3355 381.838C60.7222 381.653 63.0922 381.224 66.3025 380.803C60.8155 378.493 56.039 374.766 52.461 370.002C38.9474 352.542 31.0644 333.121 31.972 310.636C32.2374 301.912 35.0352 293.454 40.0231 286.298C45.6731 278.071 52.9857 271.124 61.487 265.909C64.462 264.065 67.4959 262.323 70.4961 260.521C72.8412 259.254 75.0016 257.671 76.9168 255.815C78.917 253.702 79.5977 251.412 78.522 248.525C77.5906 246.183 76.3252 243.988 74.7654 242.009C67.8068 232.749 65.6806 222.386 67.2017 211.072C67.5399 209.266 67.5712 207.416 67.2942 205.6C62.5649 203.138 57.4166 201.588 52.1165 201.028C48.9734 200.641 48.0489 201.483 47.7044 204.573C47.5951 205.549 47.7044 206.534 47.5867 207.511C47.3177 212.4 46.779 217.27 45.9731 222.1C44.7125 228.75 41.1156 232.959 34.2075 233.885C33.9722 233.885 33.7705 234.197 33.5604 234.374C32.72 237.699 32.0392 241.041 32.6695 244.846C35.493 242.58 38.6515 240.768 42.0316 239.475C47.7044 237.11 52.7804 238.212 56.9404 242.666C57.9825 243.785 59.3776 245.082 58.0077 246.605C56.7891 247.969 55.3604 246.774 54.2847 245.991C50.2508 243.028 46.4774 243.735 42.7712 246.58C42.1073 247.085 41.4013 247.557 40.7626 248.095C38.4263 250.065 35.9471 251.463 32.5855 249.847C32.2157 255.605 32.5435 260.79 35.0563 266.464C35.8967 262.693 37.2077 260.252 40.6954 260.294C45.4753 260.218 50.2039 261.289 54.4864 263.417C56.8311 264.654 57.1505 265.589 55.663 267.71C53.2676 271.222 49.8527 273.911 45.8807 275.413C44.7469 275.802 43.546 275.955 42.3512 275.864C41.1563 275.773 39.9925 275.439 38.9305 274.883C38.1322 274.504 37.6615 273.359 36.2076 273.822C35.9723 278.612 33.3503 282.409 30.619 286.155C28.0977 289.573 25.0303 292.418 22.0973 295.415C19.1642 298.412 16.2733 301.089 13.9453 304.44C11.3653 308.161 11.5418 310.45 14.6261 313.784C16.8769 316.287 19.5985 318.321 22.6351 319.769C25.9967 321.344 26.148 322.606 23.8453 325.553C22.82 326.866 21.7359 328.12 20.5425 329.568C25.1227 334.72 30.6778 338.441 35.8967 342.44C33.3356 346.581 30.1295 350.284 26.4001 353.409V353.409ZM229.929 327.161C228.492 328.12 228.013 329.316 227.358 330.351C220.744 340.74 214.541 351.397 208.911 362.341C202.982 373.615 198.131 385.425 194.422 397.614C192.237 405.031 190.733 412.548 191.187 420.344C191.267 422.727 191.879 425.063 192.977 427.179C194.657 430.294 197.33 431.389 200.725 430.437C204.12 429.486 206.726 427.491 209.222 425.209C213.105 421.56 216.516 417.436 219.374 412.935C227.862 399.946 231.744 385.399 232.82 370.162C233.818 355.763 232.846 341.295 229.929 327.161V327.161ZM61.7811 169.409C58.0077 168.466 54.8478 169.333 51.6963 169.737C37.9641 171.472 25.3916 176.118 14.5756 184.958C9.25489 189.125 5.07659 194.576 2.43181 200.801C-2.61062 213.26 1.20482 224.945 14.8698 229.912C19.534 231.595 24.442 231.789 29.2827 232.437C31.3837 232.698 32.3334 231.595 32.7956 229.701C33.3251 227.529 33.8881 225.366 34.5604 223.236C37.0396 215.34 39.6953 207.527 45.6118 201.348C46.7463 200.153 46.8724 198.57 47.1245 197.072C48.8053 186.97 52.7552 178.08 60.3861 171.042C60.7979 170.663 61.092 170.184 61.7811 169.409ZM386.421 282.383C382.58 300.946 374.907 316.309 357.141 324.837C357.721 325.132 358.322 325.382 358.94 325.587C362.873 326.538 366.814 327.422 370.747 328.39C374.829 329.396 379.056 329.681 383.236 329.232C390.925 328.39 394.514 323.381 392.984 315.813C392.85 314.705 392.651 313.606 392.388 312.521C391.547 309.903 392.178 307.58 393.463 305.29C394.323 303.849 395.057 302.337 395.657 300.769C396.321 298.858 396.371 297.006 394.489 295.482C390.463 292.199 388.043 287.847 386.421 282.383V282.383ZM67.9077 203.924C69.7061 196.087 71.2693 188.771 72.2526 181.27C72.5053 178.887 72.1043 176.48 71.0928 174.309C69.1263 169.805 65.1091 168.938 61.5626 172.212C53.7301 179.444 49.8726 188.704 48.4607 199.589C55.3268 199.101 61.5542 200.911 67.9245 203.924H67.9077ZM109.323 324.846C111.357 324.4 112.331 322.8 113.34 321.327C114.56 319.455 115.545 317.439 116.273 315.325C121.399 301.35 122.072 286.997 120.055 272.391C119.987 271.919 119.878 271.322 119.164 271.187C117.729 273.07 116.559 275.14 115.685 277.341C112.323 284.917 110.499 292.94 108.961 301.039C107.785 307.209 106.844 313.422 107.197 319.744C107.323 321.714 107.323 323.692 109.34 324.846H109.323ZM305.977 205.078C302.448 209.216 299.918 214.113 298.582 219.389C297.397 224.044 296.817 228.7 298.12 233.439C298.918 236.343 300.153 238.97 302.624 240.797C306.75 243.836 310.322 242.918 312.457 238.271C312.996 237.135 313.37 235.927 313.566 234.685C315.129 223.817 311.532 214.338 305.977 205.078V205.078ZM383.942 119.909C385.37 119.919 386.797 119.821 388.211 119.614C391.362 118.949 392.093 116.996 390.009 114.479C384.337 107.601 377.092 104.537 368.159 105.909C367.464 105.961 366.793 106.185 366.206 106.562C365.619 106.938 365.135 107.454 364.797 108.064C362.957 111.373 363.402 113.385 366.848 115.321C372.1 118.191 377.96 119.764 383.942 119.909V119.909ZM389.27 185.337C386.656 181.675 382.748 179.915 378.84 178.13C376.803 177.168 374.509 176.894 372.302 177.348C366.176 178.638 360.333 181.028 355.057 184.402C357.695 184.528 360.338 184.455 362.965 184.183C368.411 183.577 373.798 183.341 379.05 185.421C380.741 186.077 382.492 186.565 384.278 186.877C386.034 187.18 387.917 187.509 389.27 185.337ZM34.0562 231.638C35.5295 231.742 37.0051 231.468 38.3433 230.842C39.6816 230.216 40.8382 229.259 41.7039 228.06C43.4939 225.787 44.1158 223.059 44.6369 220.306C45.6706 214.851 45.4017 209.287 45.8387 203.714C39.4348 211.821 36.6026 221.367 34.0562 231.68V231.638ZM42.5107 263.021C41.3257 262.929 39.9895 263.282 39.5608 264.595C38.8297 266.81 38.0733 269.108 39.0062 271.482C39.8466 273.569 41.2837 274.192 43.3006 273.308C45.3176 272.425 46.2673 270.488 46.7379 268.384C47.4186 265.412 45.6706 263.139 42.5107 263.063V263.021ZM384.353 205.246C384.311 202.047 383.387 200.995 380.605 200.978C377.244 200.978 375.126 202.493 375.227 204.842C375.326 206.096 375.865 207.274 376.748 208.169C377.63 209.064 378.8 209.618 380.05 209.733C380.635 209.748 381.216 209.641 381.757 209.419C382.298 209.197 382.786 208.863 383.191 208.441C383.596 208.019 383.908 207.517 384.109 206.966C384.309 206.416 384.392 205.83 384.353 205.246V205.246ZM398.001 295.424C398.64 295.339 399.128 294.961 399.102 294.371C399.078 291.583 398.249 288.861 396.716 286.534C395.295 284.555 394.152 281.761 390.724 282.804C391.211 287.317 393.783 291.711 398.01 295.424H398.001ZM389.547 280.27C398.674 280.683 404.263 276.608 403.136 270.623C399.027 274.125 394.329 276.592 389.555 280.27H389.547ZM18.9289 332.144C18.0885 337.557 23.9714 341.91 31.1652 341.455C27.2489 337.995 22.5427 336.025 18.971 332.144H18.9289ZM47.7044 263.164C48.9986 266.532 48.4271 269.638 46.7799 273.308C50.3684 270.935 53.0913 268.973 54.8478 265.471C52.4779 264.368 50.5281 263.156 47.7464 263.164H47.7044ZM24.047 352.786L31.4678 344.368C26.2404 344.78 23.0805 348.375 24.047 352.786ZM36.9808 267.837C36.8159 268.131 36.7293 268.463 36.7293 268.8C36.7293 269.138 36.8159 269.47 36.9808 269.764V267.837Z" fill="black"/>
</g>
<mask id="path-2-outside-1_3_35" maskUnits="userSpaceOnUse" x="24.146" y="537" width="360" height="209" fill="black">
<rect fill="white" x="24.146" y="537" width="360" height="209"/>
<path fill-rule="evenodd" clip-rule="evenodd" d="M56.4639 547.451C57.5116 548.106 58.0354 549.132 58.0354 550.53V623.902C58.0354 626.741 58.2973 629.099 58.8212 630.977C59.345 632.811 60.3928 634.296 61.9643 635.432C63.5359 636.523 65.7622 637.288 68.6434 637.725C71.5682 638.205 75.4098 638.445 80.1681 638.445C87.3274 638.445 94.0284 637.288 100.271 634.973C106.557 632.615 112.014 629.208 116.641 624.753C121.312 620.255 124.979 614.708 127.642 608.114C130.349 601.519 131.702 593.963 131.702 585.447C131.702 576.931 130.436 569.724 127.904 563.829C125.372 557.889 121.771 553.085 117.1 549.416C112.429 545.748 106.797 543.105 100.205 541.489C93.6573 539.83 86.3234 539 78.2037 539C71.088 539 64.3653 539.393 58.0354 540.179C51.7492 540.922 46.2269 542.319 41.4686 544.372C36.754 546.381 33.0215 549.154 30.2713 552.692C27.5211 556.186 26.146 560.662 26.146 566.121C26.146 568.043 26.4516 569.856 27.0627 571.559C27.6739 573.262 28.5688 574.747 29.7475 576.014C30.9261 577.28 32.3449 578.285 34.0038 579.027C35.7063 579.726 37.6052 580.075 39.7006 580.075C41.0539 580.075 42.4072 579.879 43.7605 579.486C45.1574 579.049 46.3797 578.416 47.4274 577.586C48.5188 576.712 49.3919 575.642 50.0467 574.376C50.7452 573.109 51.0944 571.602 51.0944 569.856C51.0944 568.633 50.9198 567.606 50.5705 566.777C50.2213 565.903 49.7848 565.204 49.2609 564.68C48.7807 564.156 48.235 563.785 47.6239 563.566C47.0564 563.304 46.5107 563.173 45.9869 563.173C45.332 563.173 44.7427 563.37 44.2189 563.763C43.7387 564.112 43.2148 564.505 42.6473 564.942C42.0798 565.335 41.4468 565.728 40.7483 566.121C40.0499 566.471 39.155 566.645 38.0636 566.645C37.8453 566.645 37.4743 566.602 36.9504 566.514C36.4702 566.383 35.99 566.121 35.5098 565.728C35.0296 565.292 34.5931 564.658 34.2002 563.829C33.851 562.999 33.6764 561.885 33.6764 560.487C33.6764 558.478 34.222 556.622 35.3134 554.919C36.4484 553.172 37.9326 551.687 39.7661 550.464C41.5996 549.198 43.6732 548.215 45.9869 547.516C48.3005 546.774 50.6797 546.403 53.1243 546.403C54.3466 546.403 55.4598 546.752 56.4639 547.451ZM81.2813 629.863C80.19 628.771 79.6443 626.981 79.6443 624.491V553.347C79.6443 550.071 80.2773 547.8 81.5432 546.534C82.8092 545.267 84.861 544.634 87.6985 544.634C88.8771 544.634 90.2086 544.83 91.6928 545.224C93.2207 545.573 94.7705 546.294 96.342 547.385C97.9136 548.434 99.4415 549.918 100.926 551.84C102.454 553.718 103.807 556.186 104.986 559.243C106.164 562.256 107.103 565.947 107.801 570.314C108.543 574.638 108.914 579.769 108.914 585.709C108.914 594.575 108.347 601.934 107.212 607.786C106.077 613.638 104.505 618.333 102.497 621.871C100.489 625.365 98.0882 627.832 95.2943 629.274C92.5441 630.715 89.532 631.436 86.2579 631.436C84.0752 631.436 82.4163 630.911 81.2813 629.863Z"/>
<path d="M165.818 633.139C166.036 632.309 166.145 631.61 166.145 631.042V579.813C166.145 578.852 166.058 577.739 165.883 576.472C165.752 575.206 165.316 574.026 164.574 572.935C163.831 571.799 162.675 570.86 161.103 570.118C159.532 569.331 157.327 568.938 154.489 568.938C152.656 568.938 150.91 569.135 149.251 569.528C147.592 569.921 146.042 570.423 144.602 571.035C143.161 571.646 141.808 572.367 140.542 573.197C139.32 573.983 138.206 574.791 137.202 575.62L138.578 577.258C139.189 576.778 139.756 576.407 140.28 576.145C140.804 575.882 141.437 575.751 142.179 575.751C143.576 575.751 144.558 576.232 145.126 577.193C145.737 578.11 146.042 579.202 146.042 580.468V631.042C146.042 631.523 146.108 632.156 146.239 632.942C146.413 633.728 146.828 634.493 147.483 635.235C148.138 635.978 149.12 636.611 150.43 637.135C151.739 637.703 153.551 637.987 155.865 637.987C158.178 637.987 160.012 637.725 161.365 637.2C162.718 636.72 163.744 636.13 164.443 635.432C165.185 634.689 165.643 633.925 165.818 633.139Z"/>
<path d="M144.798 550.53C144.274 551.622 144.012 552.779 144.012 554.002C144.012 555.268 144.274 556.448 144.798 557.54C145.366 558.631 146.13 559.592 147.09 560.422C148.094 561.208 149.229 561.841 150.495 562.322C151.805 562.802 153.224 563.042 154.751 563.042C156.236 563.042 157.611 562.802 158.877 562.322C160.186 561.841 161.321 561.208 162.282 560.422C163.242 559.592 163.984 558.631 164.508 557.54C165.076 556.448 165.359 555.268 165.359 554.002C165.359 552.779 165.076 551.622 164.508 550.53C163.984 549.394 163.242 548.412 162.282 547.582C161.321 546.752 160.186 546.097 158.877 545.617C157.611 545.136 156.236 544.896 154.751 544.896C153.224 544.896 151.805 545.136 150.495 545.617C149.229 546.097 148.094 546.752 147.09 547.582C146.13 548.412 145.366 549.394 144.798 550.53Z"/>
<path d="M179.634 577.193C180.245 578.154 180.682 579.507 180.944 581.254C181.293 583.787 181.686 586.954 182.123 590.753C182.603 594.509 183.214 598.505 183.956 602.742C184.742 606.935 185.746 611.127 186.968 615.32C188.191 619.513 189.718 623.29 191.552 626.653C193.429 630.016 195.699 632.746 198.362 634.842C201.025 636.938 204.168 637.987 207.791 637.987C210.891 637.987 213.685 637.113 216.173 635.366C218.705 633.576 220.953 631.217 222.918 628.291C224.926 625.321 226.65 621.936 228.091 618.137C229.531 614.337 230.71 610.407 231.627 606.345C232.587 602.283 233.285 598.243 233.722 594.225C234.202 590.207 234.442 586.517 234.442 583.154C234.442 580.796 234.355 578.59 234.18 576.538C234.049 574.441 233.787 572.76 233.395 571.493C233.045 570.489 232.587 569.812 232.019 569.462C231.452 569.113 230.535 568.938 229.269 568.938C228.789 568.938 228.156 569.004 227.37 569.135C226.628 569.266 225.886 569.484 225.144 569.79C224.445 570.096 223.834 570.467 223.31 570.904C222.787 571.34 222.525 571.886 222.525 572.541C222.525 573.24 222.721 574.048 223.114 574.965C223.507 575.839 223.943 576.952 224.424 578.306C224.904 579.66 225.34 581.342 225.733 583.351C226.126 585.316 226.323 587.74 226.323 590.622C226.323 594.99 225.995 599.095 225.34 602.938C224.685 606.782 223.812 610.145 222.721 613.027C221.673 615.909 220.429 618.181 218.989 619.84C217.592 621.5 216.129 622.33 214.601 622.33C211.851 622.33 209.472 618.923 207.464 612.11C205.456 605.297 203.644 595.274 202.029 582.04C201.854 580.818 201.571 579.442 201.178 577.913C200.785 576.385 200.108 574.965 199.148 573.655C198.231 572.301 196.965 571.188 195.35 570.314C193.735 569.397 191.617 568.938 188.998 568.938C187.165 568.938 185.419 569.135 183.76 569.528C182.101 569.921 180.551 570.423 179.11 571.035C177.67 571.646 176.317 572.367 175.051 573.197C173.828 573.983 172.715 574.791 171.711 575.62L173.021 577.258C173.632 576.778 174.199 576.407 174.723 576.145C175.291 575.882 175.946 575.751 176.688 575.751C178.085 575.751 179.067 576.232 179.634 577.193Z"/>
<path fill-rule="evenodd" clip-rule="evenodd" d="M260.373 574.834C261.639 574.485 263.014 574.31 264.498 574.31C267.772 574.31 270.348 575.293 272.225 577.258C274.146 579.18 275.106 581.757 275.106 584.988C275.106 587.085 274.517 589.137 273.338 591.146C272.203 593.112 270.37 594.597 267.838 595.601C264.433 596.955 261.093 598.243 257.819 599.466C254.589 600.689 251.686 602.174 249.11 603.921C246.578 605.624 244.526 607.742 242.955 610.276C241.383 612.809 240.597 616.062 240.597 620.037C240.597 623.312 241.056 626.085 241.973 628.357C242.933 630.628 244.177 632.484 245.705 633.925C247.277 635.322 249.045 636.349 251.009 637.004C252.973 637.659 255.003 637.987 257.099 637.987C258.714 637.987 260.307 637.812 261.879 637.462C263.494 637.113 265.088 636.545 266.659 635.759C268.231 634.973 269.758 633.947 271.243 632.68C272.771 631.414 274.233 629.841 275.63 627.963C276.285 631.37 277.682 633.903 279.821 635.563C281.96 637.179 284.405 637.987 287.155 637.987C289.381 637.987 291.367 637.659 293.114 637.004C294.86 636.349 296.388 635.541 297.697 634.58C299.007 633.619 300.12 632.593 301.037 631.501C301.954 630.409 302.739 629.405 303.394 628.488L301.757 627.112C301.233 627.723 300.622 628.335 299.924 628.946C299.269 629.514 298.548 629.798 297.763 629.798C297.108 629.798 296.606 629.667 296.257 629.405C295.907 629.143 295.645 628.815 295.471 628.422C295.296 628.029 295.187 627.592 295.143 627.112C295.1 626.631 295.078 626.195 295.078 625.802V588.788C295.078 585.251 294.358 582.237 292.917 579.748C291.52 577.258 289.621 575.206 287.22 573.59C284.863 571.974 282.134 570.794 279.035 570.052C275.936 569.31 272.683 568.938 269.278 568.938C266.441 568.938 263.603 569.244 260.766 569.856C257.928 570.423 255.374 571.319 253.104 572.541C250.878 573.764 249.066 575.337 247.669 577.258C246.273 579.136 245.574 581.407 245.574 584.071C245.574 586.823 246.316 589.028 247.8 590.688C249.328 592.347 251.315 593.177 253.759 593.177C254.676 593.177 255.549 593.024 256.378 592.719C257.252 592.369 257.994 591.911 258.605 591.343C259.26 590.732 259.762 590.055 260.111 589.312C260.504 588.526 260.7 587.674 260.7 586.757C260.7 585.36 260.351 584.333 259.653 583.678C258.998 582.979 258.256 582.455 257.426 582.106C256.597 581.713 255.833 581.385 255.134 581.123C254.479 580.818 254.152 580.337 254.152 579.682C254.152 579.114 254.414 578.525 254.938 577.913C255.462 577.258 256.182 576.669 257.099 576.145C258.015 575.62 259.107 575.184 260.373 574.834ZM273.862 600.514C274.56 601.082 274.91 601.912 274.91 603.004V618.988C274.91 620.124 274.691 621.26 274.255 622.395C273.818 623.531 273.229 624.557 272.487 625.474C271.745 626.391 270.872 627.155 269.868 627.767C268.864 628.335 267.794 628.619 266.659 628.619C265.742 628.619 264.869 628.422 264.04 628.029C263.21 627.636 262.468 626.959 261.813 625.998C261.202 624.994 260.7 623.662 260.307 622.002C259.958 620.342 259.784 618.246 259.784 615.713C259.784 613.093 260.089 610.8 260.7 608.834C261.311 606.825 262.141 605.144 263.189 603.79C264.236 602.436 265.437 601.41 266.79 600.711C268.187 600.012 269.649 599.663 271.177 599.663C272.269 599.663 273.164 599.947 273.862 600.514Z"/>
<path d="M137.491 668.816C131.803 668.816 128.903 671.383 128.903 676.404V693.586L136.598 701.508L128.903 709.654V724.158C128.903 730.741 132.026 734.424 138.271 735.093L138.383 742.68H99.0139V735.316C102.025 735.205 104.479 733.977 106.375 731.411C108.048 729.068 108.94 726.39 108.94 723.154L109.051 706.976L84.627 707.087V725.721C84.627 731.857 87.9728 735.093 94.7759 735.428V743.015L54.9608 742.569L54.8493 735.093C57.8605 734.758 60.4257 733.866 62.5447 732.192C64.9983 730.295 66.225 728.064 66.225 725.274V709.988L57.4144 701.62L66.225 693.029L66.1135 677.854C66.1135 671.717 62.3216 668.147 56.1876 668.593L56.0761 660.783L94.999 660.56V668.816C89.3111 669.151 84.7385 672.61 84.7385 678.077L84.85 695.706H109.274V685.665L109.386 679.081C109.497 672.61 106.263 669.151 99.9061 668.593V660.225L138.16 660.113L138.271 668.816H137.491Z"/>
<path d="M199.646 717.799V707.868L193.512 701.62L199.646 695.483V681.871C199.646 673.503 196.3 669.263 189.72 669.151L189.609 660.225L218.382 660.002L218.494 669.821H217.825C213.029 669.821 210.576 672.498 210.576 677.966V694.925L216.933 701.508L210.576 708.315V720.142C210.576 727.059 207.676 732.861 201.765 737.548C196.3 742.011 190.055 744.242 183.028 744.242C174.552 744.242 167.526 741.453 161.95 735.874C156.374 730.184 153.585 723.154 153.585 714.674V709.765L145.555 701.62L153.585 693.586V678.97C153.585 676.181 152.916 673.726 151.578 671.829C150.017 669.486 147.898 668.593 145.109 669.04V660.56L179.906 660.337V669.04C175.11 669.151 171.987 673.056 171.987 677.966V693.14L180.129 701.508L171.987 710.211V717.575C171.987 727.617 176.783 732.638 186.374 732.638C190.612 732.638 193.958 731.188 196.3 728.287C198.531 725.609 199.646 722.15 199.646 717.799Z"/>
<path d="M299.806 669.821C295.233 669.932 291.776 673.28 291.776 677.854V693.252L299.806 701.508L291.776 710.1V742.345H283.523L245.938 699.054V724.27C245.938 731.411 248.949 734.87 254.972 734.647V742.68C253.857 743.126 248.726 743.35 239.693 743.238C230.659 743.238 225.752 743.238 225.194 743.126V734.87C229.767 734.424 233.001 730.63 233.001 725.832V710.1L232.778 710.211L224.302 701.62L232.778 693.029L233.001 693.252V684.549C233.001 680.42 231.997 677.185 229.99 674.618C227.759 671.829 224.637 670.379 220.622 670.49V660.56H239.693L279.842 706.753V680.42C279.842 673.168 277.054 669.597 271.478 669.597V660.671C272.259 660.56 276.943 660.448 285.53 660.448C294.118 660.337 298.914 660.337 299.806 660.448V669.821Z"/>
<path d="M365.991 674.953L351.269 689.793L352.831 693.029L367.664 701.843L360.637 709.319L368.333 725.274C369.448 727.506 371.344 729.737 374.132 731.857C376.92 733.977 379.486 735.093 381.828 735.093V742.68L342.459 742.792L342.57 733.866C346.362 733.308 348.258 731.857 348.258 729.514C348.258 728.956 344.578 720.923 337.328 705.19L329.187 713.559V724.382C329.187 730.184 332.198 733.977 337.886 733.531V742.792C314.688 743.126 302.532 743.126 301.305 743.015V735.539C304.093 735.093 306.324 733.642 307.885 731.076C309.335 728.845 310.004 726.278 310.004 723.266V710.1L301.64 701.62L310.004 693.252V681.425C310.004 677.631 309.67 674.953 308.889 673.28C307.662 670.713 305.432 669.486 302.086 669.374V661.118L336.659 660.895V669.151C331.864 669.932 328.741 674.284 328.741 679.193V695.26L348.035 676.515C349.485 675.176 350.154 673.726 350.154 672.275C350.154 670.379 348.37 669.374 344.689 669.374L344.801 660.895H360.637C369.671 660.783 375.024 660.783 376.697 660.895V669.597H376.251C373.017 669.597 369.56 671.383 365.991 674.953Z"/>
</mask>
<path fill-rule="evenodd" clip-rule="evenodd" d="M56.4639 547.451C57.5116 548.106 58.0354 549.132 58.0354 550.53V623.902C58.0354 626.741 58.2973 629.099 58.8212 630.977C59.345 632.811 60.3928 634.296 61.9643 635.432C63.5359 636.523 65.7622 637.288 68.6434 637.725C71.5682 638.205 75.4098 638.445 80.1681 638.445C87.3274 638.445 94.0284 637.288 100.271 634.973C106.557 632.615 112.014 629.208 116.641 624.753C121.312 620.255 124.979 614.708 127.642 608.114C130.349 601.519 131.702 593.963 131.702 585.447C131.702 576.931 130.436 569.724 127.904 563.829C125.372 557.889 121.771 553.085 117.1 549.416C112.429 545.748 106.797 543.105 100.205 541.489C93.6573 539.83 86.3234 539 78.2037 539C71.088 539 64.3653 539.393 58.0354 540.179C51.7492 540.922 46.2269 542.319 41.4686 544.372C36.754 546.381 33.0215 549.154 30.2713 552.692C27.5211 556.186 26.146 560.662 26.146 566.121C26.146 568.043 26.4516 569.856 27.0627 571.559C27.6739 573.262 28.5688 574.747 29.7475 576.014C30.9261 577.28 32.3449 578.285 34.0038 579.027C35.7063 579.726 37.6052 580.075 39.7006 580.075C41.0539 580.075 42.4072 579.879 43.7605 579.486C45.1574 579.049 46.3797 578.416 47.4274 577.586C48.5188 576.712 49.3919 575.642 50.0467 574.376C50.7452 573.109 51.0944 571.602 51.0944 569.856C51.0944 568.633 50.9198 567.606 50.5705 566.777C50.2213 565.903 49.7848 565.204 49.2609 564.68C48.7807 564.156 48.235 563.785 47.6239 563.566C47.0564 563.304 46.5107 563.173 45.9869 563.173C45.332 563.173 44.7427 563.37 44.2189 563.763C43.7387 564.112 43.2148 564.505 42.6473 564.942C42.0798 565.335 41.4468 565.728 40.7483 566.121C40.0499 566.471 39.155 566.645 38.0636 566.645C37.8453 566.645 37.4743 566.602 36.9504 566.514C36.4702 566.383 35.99 566.121 35.5098 565.728C35.0296 565.292 34.5931 564.658 34.2002 563.829C33.851 562.999 33.6764 561.885 33.6764 560.487C33.6764 558.478 34.222 556.622 35.3134 554.919C36.4484 553.172 37.9326 551.687 39.7661 550.464C41.5996 549.198 43.6732 548.215 45.9869 547.516C48.3005 546.774 50.6797 546.403 53.1243 546.403C54.3466 546.403 55.4598 546.752 56.4639 547.451ZM81.2813 629.863C80.19 628.771 79.6443 626.981 79.6443 624.491V553.347C79.6443 550.071 80.2773 547.8 81.5432 546.534C82.8092 545.267 84.861 544.634 87.6985 544.634C88.8771 544.634 90.2086 544.83 91.6928 545.224C93.2207 545.573 94.7705 546.294 96.342 547.385C97.9136 548.434 99.4415 549.918 100.926 551.84C102.454 553.718 103.807 556.186 104.986 559.243C106.164 562.256 107.103 565.947 107.801 570.314C108.543 574.638 108.914 579.769 108.914 585.709C108.914 594.575 108.347 601.934 107.212 607.786C106.077 613.638 104.505 618.333 102.497 621.871C100.489 625.365 98.0882 627.832 95.2943 629.274C92.5441 630.715 89.532 631.436 86.2579 631.436C84.0752 631.436 82.4163 630.911 81.2813 629.863Z" fill="black"/>
<path d="M165.818 633.139C166.036 632.309 166.145 631.61 166.145 631.042V579.813C166.145 578.852 166.058 577.739 165.883 576.472C165.752 575.206 165.316 574.026 164.574 572.935C163.831 571.799 162.675 570.86 161.103 570.118C159.532 569.331 157.327 568.938 154.489 568.938C152.656 568.938 150.91 569.135 149.251 569.528C147.592 569.921 146.042 570.423 144.602 571.035C143.161 571.646 141.808 572.367 140.542 573.197C139.32 573.983 138.206 574.791 137.202 575.62L138.578 577.258C139.189 576.778 139.756 576.407 140.28 576.145C140.804 575.882 141.437 575.751 142.179 575.751C143.576 575.751 144.558 576.232 145.126 577.193C145.737 578.11 146.042 579.202 146.042 580.468V631.042C146.042 631.523 146.108 632.156 146.239 632.942C146.413 633.728 146.828 634.493 147.483 635.235C148.138 635.978 149.12 636.611 150.43 637.135C151.739 637.703 153.551 637.987 155.865 637.987C158.178 637.987 160.012 637.725 161.365 637.2C162.718 636.72 163.744 636.13 164.443 635.432C165.185 634.689 165.643 633.925 165.818 633.139Z" fill="black"/>
<path d="M144.798 550.53C144.274 551.622 144.012 552.779 144.012 554.002C144.012 555.268 144.274 556.448 144.798 557.54C145.366 558.631 146.13 559.592 147.09 560.422C148.094 561.208 149.229 561.841 150.495 562.322C151.805 562.802 153.224 563.042 154.751 563.042C156.236 563.042 157.611 562.802 158.877 562.322C160.186 561.841 161.321 561.208 162.282 560.422C163.242 559.592 163.984 558.631 164.508 557.54C165.076 556.448 165.359 555.268 165.359 554.002C165.359 552.779 165.076 551.622 164.508 550.53C163.984 549.394 163.242 548.412 162.282 547.582C161.321 546.752 160.186 546.097 158.877 545.617C157.611 545.136 156.236 544.896 154.751 544.896C153.224 544.896 151.805 545.136 150.495 545.617C149.229 546.097 148.094 546.752 147.09 547.582C146.13 548.412 145.366 549.394 144.798 550.53Z" fill="black"/>
<path d="M179.634 577.193C180.245 578.154 180.682 579.507 180.944 581.254C181.293 583.787 181.686 586.954 182.123 590.753C182.603 594.509 183.214 598.505 183.956 602.742C184.742 606.935 185.746 611.127 186.968 615.32C188.191 619.513 189.718 623.29 191.552 626.653C193.429 630.016 195.699 632.746 198.362 634.842C201.025 636.938 204.168 637.987 207.791 637.987C210.891 637.987 213.685 637.113 216.173 635.366C218.705 633.576 220.953 631.217 222.918 628.291C224.926 625.321 226.65 621.936 228.091 618.137C229.531 614.337 230.71 610.407 231.627 606.345C232.587 602.283 233.285 598.243 233.722 594.225C234.202 590.207 234.442 586.517 234.442 583.154C234.442 580.796 234.355 578.59 234.18 576.538C234.049 574.441 233.787 572.76 233.395 571.493C233.045 570.489 232.587 569.812 232.019 569.462C231.452 569.113 230.535 568.938 229.269 568.938C228.789 568.938 228.156 569.004 227.37 569.135C226.628 569.266 225.886 569.484 225.144 569.79C224.445 570.096 223.834 570.467 223.31 570.904C222.787 571.34 222.525 571.886 222.525 572.541C222.525 573.24 222.721 574.048 223.114 574.965C223.507 575.839 223.943 576.952 224.424 578.306C224.904 579.66 225.34 581.342 225.733 583.351C226.126 585.316 226.323 587.74 226.323 590.622C226.323 594.99 225.995 599.095 225.34 602.938C224.685 606.782 223.812 610.145 222.721 613.027C221.673 615.909 220.429 618.181 218.989 619.84C217.592 621.5 216.129 622.33 214.601 622.33C211.851 622.33 209.472 618.923 207.464 612.11C205.456 605.297 203.644 595.274 202.029 582.04C201.854 580.818 201.571 579.442 201.178 577.913C200.785 576.385 200.108 574.965 199.148 573.655C198.231 572.301 196.965 571.188 195.35 570.314C193.735 569.397 191.617 568.938 188.998 568.938C187.165 568.938 185.419 569.135 183.76 569.528C182.101 569.921 180.551 570.423 179.11 571.035C177.67 571.646 176.317 572.367 175.051 573.197C173.828 573.983 172.715 574.791 171.711 575.62L173.021 577.258C173.632 576.778 174.199 576.407 174.723 576.145C175.291 575.882 175.946 575.751 176.688 575.751C178.085 575.751 179.067 576.232 179.634 577.193Z" fill="black"/>
<path fill-rule="evenodd" clip-rule="evenodd" d="M260.373 574.834C261.639 574.485 263.014 574.31 264.498 574.31C267.772 574.31 270.348 575.293 272.225 577.258C274.146 579.18 275.106 581.757 275.106 584.988C275.106 587.085 274.517 589.137 273.338 591.146C272.203 593.112 270.37 594.597 267.838 595.601C264.433 596.955 261.093 598.243 257.819 599.466C254.589 600.689 251.686 602.174 249.11 603.921C246.578 605.624 244.526 607.742 242.955 610.276C241.383 612.809 240.597 616.062 240.597 620.037C240.597 623.312 241.056 626.085 241.973 628.357C242.933 630.628 244.177 632.484 245.705 633.925C247.277 635.322 249.045 636.349 251.009 637.004C252.973 637.659 255.003 637.987 257.099 637.987C258.714 637.987 260.307 637.812 261.879 637.462C263.494 637.113 265.088 636.545 266.659 635.759C268.231 634.973 269.758 633.947 271.243 632.68C272.771 631.414 274.233 629.841 275.63 627.963C276.285 631.37 277.682 633.903 279.821 635.563C281.96 637.179 284.405 637.987 287.155 637.987C289.381 637.987 291.367 637.659 293.114 637.004C294.86 636.349 296.388 635.541 297.697 634.58C299.007 633.619 300.12 632.593 301.037 631.501C301.954 630.409 302.739 629.405 303.394 628.488L301.757 627.112C301.233 627.723 300.622 628.335 299.924 628.946C299.269 629.514 298.548 629.798 297.763 629.798C297.108 629.798 296.606 629.667 296.257 629.405C295.907 629.143 295.645 628.815 295.471 628.422C295.296 628.029 295.187 627.592 295.143 627.112C295.1 626.631 295.078 626.195 295.078 625.802V588.788C295.078 585.251 294.358 582.237 292.917 579.748C291.52 577.258 289.621 575.206 287.22 573.59C284.863 571.974 282.134 570.794 279.035 570.052C275.936 569.31 272.683 568.938 269.278 568.938C266.441 568.938 263.603 569.244 260.766 569.856C257.928 570.423 255.374 571.319 253.104 572.541C250.878 573.764 249.066 575.337 247.669 577.258C246.273 579.136 245.574 581.407 245.574 584.071C245.574 586.823 246.316 589.028 247.8 590.688C249.328 592.347 251.315 593.177 253.759 593.177C254.676 593.177 255.549 593.024 256.378 592.719C257.252 592.369 257.994 591.911 258.605 591.343C259.26 590.732 259.762 590.055 260.111 589.312C260.504 588.526 260.7 587.674 260.7 586.757C260.7 585.36 260.351 584.333 259.653 583.678C258.998 582.979 258.256 582.455 257.426 582.106C256.597 581.713 255.833 581.385 255.134 581.123C254.479 580.818 254.152 580.337 254.152 579.682C254.152 579.114 254.414 578.525 254.938 577.913C255.462 577.258 256.182 576.669 257.099 576.145C258.015 575.62 259.107 575.184 260.373 574.834ZM273.862 600.514C274.56 601.082 274.91 601.912 274.91 603.004V618.988C274.91 620.124 274.691 621.26 274.255 622.395C273.818 623.531 273.229 624.557 272.487 625.474C271.745 626.391 270.872 627.155 269.868 627.767C268.864 628.335 267.794 628.619 266.659 628.619C265.742 628.619 264.869 628.422 264.04 628.029C263.21 627.636 262.468 626.959 261.813 625.998C261.202 624.994 260.7 623.662 260.307 622.002C259.958 620.342 259.784 618.246 259.784 615.713C259.784 613.093 260.089 610.8 260.7 608.834C261.311 606.825 262.141 605.144 263.189 603.79C264.236 602.436 265.437 601.41 266.79 600.711C268.187 600.012 269.649 599.663 271.177 599.663C272.269 599.663 273.164 599.947 273.862 600.514Z" fill="black"/>
<path d="M137.491 668.816C131.803 668.816 128.903 671.383 128.903 676.404V693.586L136.598 701.508L128.903 709.654V724.158C128.903 730.741 132.026 734.424 138.271 735.093L138.383 742.68H99.0139V735.316C102.025 735.205 104.479 733.977 106.375 731.411C108.048 729.068 108.94 726.39 108.94 723.154L109.051 706.976L84.627 707.087V725.721C84.627 731.857 87.9728 735.093 94.7759 735.428V743.015L54.9608 742.569L54.8493 735.093C57.8605 734.758 60.4257 733.866 62.5447 732.192C64.9983 730.295 66.225 728.064 66.225 725.274V709.988L57.4144 701.62L66.225 693.029L66.1135 677.854C66.1135 671.717 62.3216 668.147 56.1876 668.593L56.0761 660.783L94.999 660.56V668.816C89.3111 669.151 84.7385 672.61 84.7385 678.077L84.85 695.706H109.274V685.665L109.386 679.081C109.497 672.61 106.263 669.151 99.9061 668.593V660.225L138.16 660.113L138.271 668.816H137.491Z" fill="black"/>
<path d="M199.646 717.799V707.868L193.512 701.62L199.646 695.483V681.871C199.646 673.503 196.3 669.263 189.72 669.151L189.609 660.225L218.382 660.002L218.494 669.821H217.825C213.029 669.821 210.576 672.498 210.576 677.966V694.925L216.933 701.508L210.576 708.315V720.142C210.576 727.059 207.676 732.861 201.765 737.548C196.3 742.011 190.055 744.242 183.028 744.242C174.552 744.242 167.526 741.453 161.95 735.874C156.374 730.184 153.585 723.154 153.585 714.674V709.765L145.555 701.62L153.585 693.586V678.97C153.585 676.181 152.916 673.726 151.578 671.829C150.017 669.486 147.898 668.593 145.109 669.04V660.56L179.906 660.337V669.04C175.11 669.151 171.987 673.056 171.987 677.966V693.14L180.129 701.508L171.987 710.211V717.575C171.987 727.617 176.783 732.638 186.374 732.638C190.612 732.638 193.958 731.188 196.3 728.287C198.531 725.609 199.646 722.15 199.646 717.799Z" fill="black"/>
<path d="M299.806 669.821C295.233 669.932 291.776 673.28 291.776 677.854V693.252L299.806 701.508L291.776 710.1V742.345H283.523L245.938 699.054V724.27C245.938 731.411 248.949 734.87 254.972 734.647V742.68C253.857 743.126 248.726 743.35 239.693 743.238C230.659 743.238 225.752 743.238 225.194 743.126V734.87C229.767 734.424 233.001 730.63 233.001 725.832V710.1L232.778 710.211L224.302 701.62L232.778 693.029L233.001 693.252V684.549C233.001 680.42 231.997 677.185 229.99 674.618C227.759 671.829 224.637 670.379 220.622 670.49V660.56H239.693L279.842 706.753V680.42C279.842 673.168 277.054 669.597 271.478 669.597V660.671C272.259 660.56 276.943 660.448 285.53 660.448C294.118 660.337 298.914 660.337 299.806 660.448V669.821Z" fill="black"/>
<path d="M365.991 674.953L351.269 689.793L352.831 693.029L367.664 701.843L360.637 709.319L368.333 725.274C369.448 727.506 371.344 729.737 374.132 731.857C376.92 733.977 379.486 735.093 381.828 735.093V742.68L342.459 742.792L342.57 733.866C346.362 733.308 348.258 731.857 348.258 729.514C348.258 728.956 344.578 720.923 337.328 705.19L329.187 713.559V724.382C329.187 730.184 332.198 733.977 337.886 733.531V742.792C314.688 743.126 302.532 743.126 301.305 743.015V735.539C304.093 735.093 306.324 733.642 307.885 731.076C309.335 728.845 310.004 726.278 310.004 723.266V710.1L301.64 701.62L310.004 693.252V681.425C310.004 677.631 309.67 674.953 308.889 673.28C307.662 670.713 305.432 669.486 302.086 669.374V661.118L336.659 660.895V669.151C331.864 669.932 328.741 674.284 328.741 679.193V695.26L348.035 676.515C349.485 675.176 350.154 673.726 350.154 672.275C350.154 670.379 348.37 669.374 344.689 669.374L344.801 660.895H360.637C369.671 660.783 375.024 660.783 376.697 660.895V669.597H376.251C373.017 669.597 369.56 671.383 365.991 674.953Z" fill="black"/>
<path fill-rule="evenodd" clip-rule="evenodd" d="M56.4639 547.451C57.5116 548.106 58.0354 549.132 58.0354 550.53V623.902C58.0354 626.741 58.2973 629.099 58.8212 630.977C59.345 632.811 60.3928 634.296 61.9643 635.432C63.5359 636.523 65.7622 637.288 68.6434 637.725C71.5682 638.205 75.4098 638.445 80.1681 638.445C87.3274 638.445 94.0284 637.288 100.271 634.973C106.557 632.615 112.014 629.208 116.641 624.753C121.312 620.255 124.979 614.708 127.642 608.114C130.349 601.519 131.702 593.963 131.702 585.447C131.702 576.931 130.436 569.724 127.904 563.829C125.372 557.889 121.771 553.085 117.1 549.416C112.429 545.748 106.797 543.105 100.205 541.489C93.6573 539.83 86.3234 539 78.2037 539C71.088 539 64.3653 539.393 58.0354 540.179C51.7492 540.922 46.2269 542.319 41.4686 544.372C36.754 546.381 33.0215 549.154 30.2713 552.692C27.5211 556.186 26.146 560.662 26.146 566.121C26.146 568.043 26.4516 569.856 27.0627 571.559C27.6739 573.262 28.5688 574.747 29.7475 576.014C30.9261 577.28 32.3449 578.285 34.0038 579.027C35.7063 579.726 37.6052 580.075 39.7006 580.075C41.0539 580.075 42.4072 579.879 43.7605 579.486C45.1574 579.049 46.3797 578.416 47.4274 577.586C48.5188 576.712 49.3919 575.642 50.0467 574.376C50.7452 573.109 51.0944 571.602 51.0944 569.856C51.0944 568.633 50.9198 567.606 50.5705 566.777C50.2213 565.903 49.7848 565.204 49.2609 564.68C48.7807 564.156 48.235 563.785 47.6239 563.566C47.0564 563.304 46.5107 563.173 45.9869 563.173C45.332 563.173 44.7427 563.37 44.2189 563.763C43.7387 564.112 43.2148 564.505 42.6473 564.942C42.0798 565.335 41.4468 565.728 40.7483 566.121C40.0499 566.471 39.155 566.645 38.0636 566.645C37.8453 566.645 37.4743 566.602 36.9504 566.514C36.4702 566.383 35.99 566.121 35.5098 565.728C35.0296 565.292 34.5931 564.658 34.2002 563.829C33.851 562.999 33.6764 561.885 33.6764 560.487C33.6764 558.478 34.222 556.622 35.3134 554.919C36.4484 553.172 37.9326 551.687 39.7661 550.464C41.5996 549.198 43.6732 548.215 45.9869 547.516C48.3005 546.774 50.6797 546.403 53.1243 546.403C54.3466 546.403 55.4598 546.752 56.4639 547.451ZM81.2813 629.863C80.19 628.771 79.6443 626.981 79.6443 624.491V553.347C79.6443 550.071 80.2773 547.8 81.5432 546.534C82.8092 545.267 84.861 544.634 87.6985 544.634C88.8771 544.634 90.2086 544.83 91.6928 545.224C93.2207 545.573 94.7705 546.294 96.342 547.385C97.9136 548.434 99.4415 549.918 100.926 551.84C102.454 553.718 103.807 556.186 104.986 559.243C106.164 562.256 107.103 565.947 107.801 570.314C108.543 574.638 108.914 579.769 108.914 585.709C108.914 594.575 108.347 601.934 107.212 607.786C106.077 613.638 104.505 618.333 102.497 621.871C100.489 625.365 98.0882 627.832 95.2943 629.274C92.5441 630.715 89.532 631.436 86.2579 631.436C84.0752 631.436 82.4163 630.911 81.2813 629.863Z" stroke="white" stroke-width="3.2237" mask="url(#path-2-outside-1_3_35)"/>
<path d="M165.818 633.139C166.036 632.309 166.145 631.61 166.145 631.042V579.813C166.145 578.852 166.058 577.739 165.883 576.472C165.752 575.206 165.316 574.026 164.574 572.935C163.831 571.799 162.675 570.86 161.103 570.118C159.532 569.331 157.327 568.938 154.489 568.938C152.656 568.938 150.91 569.135 149.251 569.528C147.592 569.921 146.042 570.423 144.602 571.035C143.161 571.646 141.808 572.367 140.542 573.197C139.32 573.983 138.206 574.791 137.202 575.62L138.578 577.258C139.189 576.778 139.756 576.407 140.28 576.145C140.804 575.882 141.437 575.751 142.179 575.751C143.576 575.751 144.558 576.232 145.126 577.193C145.737 578.11 146.042 579.202 146.042 580.468V631.042C146.042 631.523 146.108 632.156 146.239 632.942C146.413 633.728 146.828 634.493 147.483 635.235C148.138 635.978 149.12 636.611 150.43 637.135C151.739 637.703 153.551 637.987 155.865 637.987C158.178 637.987 160.012 637.725 161.365 637.2C162.718 636.72 163.744 636.13 164.443 635.432C165.185 634.689 165.643 633.925 165.818 633.139Z" stroke="white" stroke-width="3.2237" mask="url(#path-2-outside-1_3_35)"/>
<path d="M144.798 550.53C144.274 551.622 144.012 552.779 144.012 554.002C144.012 555.268 144.274 556.448 144.798 557.54C145.366 558.631 146.13 559.592 147.09 560.422C148.094 561.208 149.229 561.841 150.495 562.322C151.805 562.802 153.224 563.042 154.751 563.042C156.236 563.042 157.611 562.802 158.877 562.322C160.186 561.841 161.321 561.208 162.282 560.422C163.242 559.592 163.984 558.631 164.508 557.54C165.076 556.448 165.359 555.268 165.359 554.002C165.359 552.779 165.076 551.622 164.508 550.53C163.984 549.394 163.242 548.412 162.282 547.582C161.321 546.752 160.186 546.097 158.877 545.617C157.611 545.136 156.236 544.896 154.751 544.896C153.224 544.896 151.805 545.136 150.495 545.617C149.229 546.097 148.094 546.752 147.09 547.582C146.13 548.412 145.366 549.394 144.798 550.53Z" stroke="white" stroke-width="3.2237" mask="url(#path-2-outside-1_3_35)"/>
<path d="M179.634 577.193C180.245 578.154 180.682 579.507 180.944 581.254C181.293 583.787 181.686 586.954 182.123 590.753C182.603 594.509 183.214 598.505 183.956 602.742C184.742 606.935 185.746 611.127 186.968 615.32C188.191 619.513 189.718 623.29 191.552 626.653C193.429 630.016 195.699 632.746 198.362 634.842C201.025 636.938 204.168 637.987 207.791 637.987C210.891 637.987 213.685 637.113 216.173 635.366C218.705 633.576 220.953 631.217 222.918 628.291C224.926 625.321 226.65 621.936 228.091 618.137C229.531 614.337 230.71 610.407 231.627 606.345C232.587 602.283 233.285 598.243 233.722 594.225C234.202 590.207 234.442 586.517 234.442 583.154C234.442 580.796 234.355 578.59 234.18 576.538C234.049 574.441 233.787 572.76 233.395 571.493C233.045 570.489 232.587 569.812 232.019 569.462C231.452 569.113 230.535 568.938 229.269 568.938C228.789 568.938 228.156 569.004 227.37 569.135C226.628 569.266 225.886 569.484 225.144 569.79C224.445 570.096 223.834 570.467 223.31 570.904C222.787 571.34 222.525 571.886 222.525 572.541C222.525 573.24 222.721 574.048 223.114 574.965C223.507 575.839 223.943 576.952 224.424 578.306C224.904 579.66 225.34 581.342 225.733 583.351C226.126 585.316 226.323 587.74 226.323 590.622C226.323 594.99 225.995 599.095 225.34 602.938C224.685 606.782 223.812 610.145 222.721 613.027C221.673 615.909 220.429 618.181 218.989 619.84C217.592 621.5 216.129 622.33 214.601 622.33C211.851 622.33 209.472 618.923 207.464 612.11C205.456 605.297 203.644 595.274 202.029 582.04C201.854 580.818 201.571 579.442 201.178 577.913C200.785 576.385 200.108 574.965 199.148 573.655C198.231 572.301 196.965 571.188 195.35 570.314C193.735 569.397 191.617 568.938 188.998 568.938C187.165 568.938 185.419 569.135 183.76 569.528C182.101 569.921 180.551 570.423 179.11 571.035C177.67 571.646 176.317 572.367 175.051 573.197C173.828 573.983 172.715 574.791 171.711 575.62L173.021 577.258C173.632 576.778 174.199 576.407 174.723 576.145C175.291 575.882 175.946 575.751 176.688 575.751C178.085 575.751 179.067 576.232 179.634 577.193Z" stroke="white" stroke-width="3.2237" mask="url(#path-2-outside-1_3_35)"/>
<path fill-rule="evenodd" clip-rule="evenodd" d="M260.373 574.834C261.639 574.485 263.014 574.31 264.498 574.31C267.772 574.31 270.348 575.293 272.225 577.258C274.146 579.18 275.106 581.757 275.106 584.988C275.106 587.085 274.517 589.137 273.338 591.146C272.203 593.112 270.37 594.597 267.838 595.601C264.433 596.955 261.093 598.243 257.819 599.466C254.589 600.689 251.686 602.174 249.11 603.921C246.578 605.624 244.526 607.742 242.955 610.276C241.383 612.809 240.597 616.062 240.597 620.037C240.597 623.312 241.056 626.085 241.973 628.357C242.933 630.628 244.177 632.484 245.705 633.925C247.277 635.322 249.045 636.349 251.009 637.004C252.973 637.659 255.003 637.987 257.099 637.987C258.714 637.987 260.307 637.812 261.879 637.462C263.494 637.113 265.088 636.545 266.659 635.759C268.231 634.973 269.758 633.947 271.243 632.68C272.771 631.414 274.233 629.841 275.63 627.963C276.285 631.37 277.682 633.903 279.821 635.563C281.96 637.179 284.405 637.987 287.155 637.987C289.381 637.987 291.367 637.659 293.114 637.004C294.86 636.349 296.388 635.541 297.697 634.58C299.007 633.619 300.12 632.593 301.037 631.501C301.954 630.409 302.739 629.405 303.394 628.488L301.757 627.112C301.233 627.723 300.622 628.335 299.924 628.946C299.269 629.514 298.548 629.798 297.763 629.798C297.108 629.798 296.606 629.667 296.257 629.405C295.907 629.143 295.645 628.815 295.471 628.422C295.296 628.029 295.187 627.592 295.143 627.112C295.1 626.631 295.078 626.195 295.078 625.802V588.788C295.078 585.251 294.358 582.237 292.917 579.748C291.52 577.258 289.621 575.206 287.22 573.59C284.863 571.974 282.134 570.794 279.035 570.052C275.936 569.31 272.683 568.938 269.278 568.938C266.441 568.938 263.603 569.244 260.766 569.856C257.928 570.423 255.374 571.319 253.104 572.541C250.878 573.764 249.066 575.337 247.669 577.258C246.273 579.136 245.574 581.407 245.574 584.071C245.574 586.823 246.316 589.028 247.8 590.688C249.328 592.347 251.315 593.177 253.759 593.177C254.676 593.177 255.549 593.024 256.378 592.719C257.252 592.369 257.994 591.911 258.605 591.343C259.26 590.732 259.762 590.055 260.111 589.312C260.504 588.526 260.7 587.674 260.7 586.757C260.7 585.36 260.351 584.333 259.653 583.678C258.998 582.979 258.256 582.455 257.426 582.106C256.597 581.713 255.833 581.385 255.134 581.123C254.479 580.818 254.152 580.337 254.152 579.682C254.152 579.114 254.414 578.525 254.938 577.913C255.462 577.258 256.182 576.669 257.099 576.145C258.015 575.62 259.107 575.184 260.373 574.834ZM273.862 600.514C274.56 601.082 274.91 601.912 274.91 603.004V618.988C274.91 620.124 274.691 621.26 274.255 622.395C273.818 623.531 273.229 624.557 272.487 625.474C271.745 626.391 270.872 627.155 269.868 627.767C268.864 628.335 267.794 628.619 266.659 628.619C265.742 628.619 264.869 628.422 264.04 628.029C263.21 627.636 262.468 626.959 261.813 625.998C261.202 624.994 260.7 623.662 260.307 622.002C259.958 620.342 259.784 618.246 259.784 615.713C259.784 613.093 260.089 610.8 260.7 608.834C261.311 606.825 262.141 605.144 263.189 603.79C264.236 602.436 265.437 601.41 266.79 600.711C268.187 600.012 269.649 599.663 271.177 599.663C272.269 599.663 273.164 599.947 273.862 600.514Z" stroke="white" stroke-width="3.2237" mask="url(#path-2-outside-1_3_35)"/>
<path d="M137.491 668.816C131.803 668.816 128.903 671.383 128.903 676.404V693.586L136.598 701.508L128.903 709.654V724.158C128.903 730.741 132.026 734.424 138.271 735.093L138.383 742.68H99.0139V735.316C102.025 735.205 104.479 733.977 106.375 731.411C108.048 729.068 108.94 726.39 108.94 723.154L109.051 706.976L84.627 707.087V725.721C84.627 731.857 87.9728 735.093 94.7759 735.428V743.015L54.9608 742.569L54.8493 735.093C57.8605 734.758 60.4257 733.866 62.5447 732.192C64.9983 730.295 66.225 728.064 66.225 725.274V709.988L57.4144 701.62L66.225 693.029L66.1135 677.854C66.1135 671.717 62.3216 668.147 56.1876 668.593L56.0761 660.783L94.999 660.56V668.816C89.3111 669.151 84.7385 672.61 84.7385 678.077L84.85 695.706H109.274V685.665L109.386 679.081C109.497 672.61 106.263 669.151 99.9061 668.593V660.225L138.16 660.113L138.271 668.816H137.491Z" stroke="white" stroke-width="3.2237" mask="url(#path-2-outside-1_3_35)"/>
<path d="M199.646 717.799V707.868L193.512 701.62L199.646 695.483V681.871C199.646 673.503 196.3 669.263 189.72 669.151L189.609 660.225L218.382 660.002L218.494 669.821H217.825C213.029 669.821 210.576 672.498 210.576 677.966V694.925L216.933 701.508L210.576 708.315V720.142C210.576 727.059 207.676 732.861 201.765 737.548C196.3 742.011 190.055 744.242 183.028 744.242C174.552 744.242 167.526 741.453 161.95 735.874C156.374 730.184 153.585 723.154 153.585 714.674V709.765L145.555 701.62L153.585 693.586V678.97C153.585 676.181 152.916 673.726 151.578 671.829C150.017 669.486 147.898 668.593 145.109 669.04V660.56L179.906 660.337V669.04C175.11 669.151 171.987 673.056 171.987 677.966V693.14L180.129 701.508L171.987 710.211V717.575C171.987 727.617 176.783 732.638 186.374 732.638C190.612 732.638 193.958 731.188 196.3 728.287C198.531 725.609 199.646 722.15 199.646 717.799Z" stroke="white" stroke-width="3.2237" mask="url(#path-2-outside-1_3_35)"/>
<path d="M299.806 669.821C295.233 669.932 291.776 673.28 291.776 677.854V693.252L299.806 701.508L291.776 710.1V742.345H283.523L245.938 699.054V724.27C245.938 731.411 248.949 734.87 254.972 734.647V742.68C253.857 743.126 248.726 743.35 239.693 743.238C230.659 743.238 225.752 743.238 225.194 743.126V734.87C229.767 734.424 233.001 730.63 233.001 725.832V710.1L232.778 710.211L224.302 701.62L232.778 693.029L233.001 693.252V684.549C233.001 680.42 231.997 677.185 229.99 674.618C227.759 671.829 224.637 670.379 220.622 670.49V660.56H239.693L279.842 706.753V680.42C279.842 673.168 277.054 669.597 271.478 669.597V660.671C272.259 660.56 276.943 660.448 285.53 660.448C294.118 660.337 298.914 660.337 299.806 660.448V669.821Z" stroke="white" stroke-width="3.2237" mask="url(#path-2-outside-1_3_35)"/>
<path d="M365.991 674.953L351.269 689.793L352.831 693.029L367.664 701.843L360.637 709.319L368.333 725.274C369.448 727.506 371.344 729.737 374.132 731.857C376.92 733.977 379.486 735.093 381.828 735.093V742.68L342.459 742.792L342.57 733.866C346.362 733.308 348.258 731.857 348.258 729.514C348.258 728.956 344.578 720.923 337.328 705.19L329.187 713.559V724.382C329.187 730.184 332.198 733.977 337.886 733.531V742.792C314.688 743.126 302.532 743.126 301.305 743.015V735.539C304.093 735.093 306.324 733.642 307.885 731.076C309.335 728.845 310.004 726.278 310.004 723.266V710.1L301.64 701.62L310.004 693.252V681.425C310.004 677.631 309.67 674.953 308.889 673.28C307.662 670.713 305.432 669.486 302.086 669.374V661.118L336.659 660.895V669.151C331.864 669.932 328.741 674.284 328.741 679.193V695.26L348.035 676.515C349.485 675.176 350.154 673.726 350.154 672.275C350.154 670.379 348.37 669.374 344.689 669.374L344.801 660.895H360.637C369.671 660.783 375.024 660.783 376.697 660.895V669.597H376.251C373.017 669.597 369.56 671.383 365.991 674.953Z" stroke="white" stroke-width="3.2237" mask="url(#path-2-outside-1_3_35)"/>
<path fill-rule="evenodd" clip-rule="evenodd" d="M-497.691 789.709L-517.931 727.16H-590.218L-610.779 789.709H-664.432L-584.435 568.383H-522.107L-443.074 789.709H-497.691ZM-588.912 728.961L-609.473 791.509H-667L-585.701 566.583H-520.836L-440.516 791.509H-499.003L-519.243 728.961H-588.912ZM-553.914 612.007L-577.688 687.707H-530.461L-553.914 612.007ZM-553.925 618.062L-575.233 685.906H-532.906L-553.925 618.062ZM-375.914 552.149V731.33C-375.914 738.697 -375.913 742.477 -375.6 746.871C-375.147 750.445 -374.175 752.278 -372.056 753.394C-369.643 754.666 -365.442 755.193 -357.875 754.872L-355.995 754.792V792.621L-357.619 792.783C-367.298 793.75 -376.678 794.396 -387.998 794.396C-400.235 794.396 -410.253 792.041 -417.407 786.567C-424.627 781.042 -428.646 772.561 -429.314 760.961C-429.96 752.558 -429.96 744.162 -429.96 732.35V552.149H-375.914ZM-427.515 760.84C-426.229 783.294 -412.093 792.596 -387.998 792.596C-376.753 792.596 -367.436 791.954 -357.798 790.992V756.67C-358.418 756.697 -359.019 756.718 -359.601 756.733C-373.184 757.092 -376.471 754.43 -377.396 747.048C-377.717 742.557 -377.717 738.708 -377.717 731.33V553.949H-428.157V732.293C-428.157 744.161 -428.157 752.5 -427.515 760.84ZM-174.165 727.285L-174.491 729.364C-177.931 751.276 -188.035 767.99 -203.064 779.203C-218.066 790.395 -237.83 796 -260.447 796C-284.608 796 -305.98 788.252 -321.317 772.981C-336.659 757.704 -345.781 735.078 -345.781 705.669C-345.781 675.903 -335.833 652.563 -319.578 636.663C-303.335 620.773 -280.933 612.452 -256.27 612.452C-231.957 612.452 -212.155 619.952 -198.086 632.433C-184.017 644.915 -175.788 662.285 -174.473 681.812L-174.344 683.733H-226.98L-227.211 682.201C-228.942 670.732 -232.682 662.893 -237.808 657.925C-242.904 652.985 -249.565 650.695 -257.555 650.695C-267.588 650.695 -275.691 654.753 -281.364 663.097C-287.102 671.538 -290.45 684.518 -290.45 702.462C-290.45 722.189 -287.015 736.059 -281.224 744.943C-275.505 753.715 -267.41 757.757 -257.555 757.757C-250.282 757.757 -243.823 755.271 -238.711 750.468C-233.584 745.649 -229.713 738.403 -227.841 728.743L-227.558 727.285H-174.165ZM-176.573 730.885C-183.943 772.685 -216.417 794.2 -260.447 794.2C-307.995 794.2 -343.978 763.727 -343.978 705.669C-343.978 646.97 -304.783 614.252 -256.27 614.252C-209.156 614.252 -179.78 642.838 -176.414 680.133C-176.361 680.73 -176.313 681.331 -176.273 681.933H-225.428C-228.962 658.517 -240.849 648.895 -257.555 648.895C-278.759 648.895 -292.253 666.216 -292.253 702.462C-292.253 742.236 -278.438 759.557 -257.555 759.557C-242.134 759.557 -229.926 748.972 -226.07 729.085H-176.273C-176.368 729.689 -176.468 730.289 -176.573 730.885ZM-84.6316 625.158C-73.0657 617.46 -60.8572 614.252 -44.7934 614.252C-8.81065 614.252 12.0722 631.573 15.9275 661.404C17.2126 670.065 17.5339 679.367 17.5339 693.16V789.709H-32.9063V700.858C-32.9063 694.443 -32.9063 685.782 -33.5488 677.122C-34.8339 659.8 -44.4722 648.895 -64.07 648.895C-83.989 649.215 -98.7677 666.857 -98.7677 710.481V789.709H-149.208V552.345H-98.7677V645.687L-84.6316 625.158ZM-96.9644 639.89V550.545H-151.011V791.509H-96.9644V710.481C-96.9644 688.826 -93.2884 673.898 -87.3582 664.402C-81.4962 655.015 -73.3886 650.849 -64.0556 650.695C-54.6024 650.698 -47.7982 653.322 -43.2017 657.801C-38.5886 662.296 -35.9682 668.884 -35.3472 677.255C-34.7103 685.839 -34.7095 694.436 -34.7095 700.858V791.509H19.3371V693.16C19.3371 679.365 19.0175 669.954 17.7141 661.16C15.7349 645.868 9.36088 633.626 -1.26615 625.23C-11.8729 616.85 -26.524 612.452 -44.7934 612.452C-61.1374 612.452 -73.7124 615.727 -85.6319 623.66L-85.9208 623.852L-96.9644 639.89ZM213.817 732.096L213.294 734.309C208.54 754.441 197.938 769.903 183.141 780.315C168.362 790.713 149.506 796 128.328 796C104.032 796 82.1815 788.588 66.3948 773.362C50.5939 758.122 41.0661 735.243 41.0661 704.707C41.0661 678.644 49.7991 655.568 65.5358 638.995C81.2838 622.41 103.938 612.452 131.541 612.452C159.346 612.452 180.576 623.004 194.831 639.457C209.056 655.876 216.233 678.048 216.233 701.179C216.233 705.748 215.907 711.267 215.26 717.405L215.09 719.017H95.2955C96.8798 734.04 100.955 743.58 106.576 749.407C112.392 755.438 120.123 757.757 129.292 757.757C137.798 757.757 144.769 755.444 149.935 751.333C155.093 747.228 158.588 741.222 159.966 733.577L160.233 732.096H213.817ZM93.4824 719.017C96.7281 750.289 110.689 759.557 129.292 759.557C146.962 759.557 158.85 749.934 161.741 733.896H211.539C211.396 734.501 211.248 735.101 211.094 735.697C201.235 773.984 169.454 794.2 128.328 794.2C80.4586 794.2 42.8694 765.01 42.8694 704.707C42.8694 653.385 77.2458 614.252 131.541 614.252C186.158 614.252 214.43 655.631 214.43 701.179C214.43 705.669 214.109 711.122 213.466 717.217H93.3096C93.3633 717.825 93.4209 718.425 93.4824 719.017ZM150.237 659.358C145.121 653.652 138.165 650.695 129.292 650.695C120.702 650.695 113.56 653.36 108.047 658.94C102.81 664.239 98.8946 672.317 96.7444 683.661H160.006C158.448 672.857 155.105 664.785 150.237 659.358ZM161.827 683.661C158.598 660.78 147.456 648.895 129.292 648.895C111.733 648.895 99.3759 659.589 94.9098 683.661C94.8 684.253 94.6949 684.853 94.5947 685.461H162.062C161.989 684.854 161.911 684.254 161.827 683.661ZM304.168 626.652L304.339 626.475C313.373 617.121 326.381 612.452 336.801 612.452C342.126 612.452 345.695 613.049 349.33 613.656L351.455 614.01V658.192L349.536 658.069C329.807 656.798 316.273 660.178 307.589 669.338C298.847 678.559 294.589 694.075 294.589 718.179V791.509H240.543V616.943H294.589V644.344L304.168 626.652ZM292.786 651.461V618.743H242.346V789.709H292.786V718.179C292.786 670.481 309.299 654.202 347.848 656.168C348.444 656.198 349.045 656.233 349.652 656.272V615.535L349.043 615.434C345.418 614.828 341.974 614.252 336.801 614.252C326.841 614.252 314.312 618.743 305.637 627.724L292.786 651.461Z" fill="black"/>
<path fill-rule="evenodd" clip-rule="evenodd" d="M-129.545 525.936L-149.785 463.388H-222.072L-242.633 525.936H-296.286L-216.289 304.611H-153.961L-74.9278 525.936H-129.545ZM-220.766 465.188L-241.327 527.737H-298.854L-217.555 302.811H-152.69L-72.3704 527.737H-130.857L-151.097 465.188H-220.766ZM-185.768 348.235L-209.542 423.934H-162.315L-185.768 348.235ZM-185.779 354.289L-207.087 422.134H-164.76L-185.779 354.289ZM-7.7677 288.376V467.558C-7.7677 474.924 -7.76682 478.705 -7.45446 483.099C-7.00061 486.672 -6.02868 488.505 -3.91017 489.622C-1.49654 490.894 2.70386 491.421 10.2714 491.099L12.1513 491.019V528.849L10.5275 529.011C0.847579 529.977 -8.53155 530.624 -19.8518 530.624C-32.0887 530.624 -42.1073 528.269 -49.2611 522.794C-56.4808 517.27 -60.5003 508.789 -61.1679 497.189C-61.8144 488.786 -61.8144 480.389 -61.8144 468.577V288.376H-7.7677ZM-59.3686 497.068C-58.0835 519.521 -43.9474 528.823 -19.8518 528.823C-8.60716 528.823 0.709797 528.182 10.348 527.219V492.898C9.7276 492.924 9.12674 492.945 8.54476 492.961C-5.03794 493.32 -8.32549 490.657 -9.24971 483.275C-9.57099 478.784 -9.57099 474.935 -9.57099 467.558V290.177H-60.0111V468.52C-60.0111 480.388 -60.0111 488.728 -59.3686 497.068ZM193.981 463.512L193.655 465.591C190.215 487.504 180.111 504.218 165.082 515.43C150.08 526.623 130.316 532.227 107.699 532.227C83.5382 532.227 62.1659 524.479 46.8294 509.208C31.4867 493.931 22.3646 471.305 22.3646 441.897C22.3646 412.131 32.313 388.79 48.5677 372.89C64.8113 357.001 87.2126 348.679 111.876 348.679C136.189 348.679 155.991 356.179 170.06 368.66C184.129 381.142 192.358 398.513 193.673 418.04L193.802 419.961H141.166L140.935 418.429C139.204 406.96 135.464 399.12 130.338 394.152C125.242 389.213 118.581 386.922 110.591 386.922C100.558 386.922 92.4549 390.98 86.7825 399.324C81.0437 407.766 77.6964 420.745 77.6964 438.689C77.6964 458.417 81.1308 472.286 86.9222 481.17C92.6411 489.943 100.736 493.984 110.591 493.984C117.864 493.984 124.323 491.498 129.435 486.695C134.562 481.877 138.433 474.63 140.305 464.97L140.588 463.512H193.981ZM191.573 467.113C184.203 508.912 151.729 530.427 107.699 530.427C60.1507 530.427 24.1679 499.955 24.1679 441.897C24.1679 383.197 63.3634 350.48 111.876 350.48C158.99 350.48 188.366 379.066 191.731 416.36C191.785 416.958 191.833 417.558 191.873 418.161H142.718C139.184 394.745 127.297 385.122 110.591 385.122C89.3866 385.122 75.8931 402.443 75.8931 438.689C75.8931 478.464 89.7079 495.785 110.591 495.785C126.012 495.785 138.22 485.2 142.076 465.312H191.873C191.778 465.917 191.678 466.517 191.573 467.113ZM283.514 361.386C295.08 353.687 307.289 350.48 323.353 350.48C359.335 350.48 380.218 367.801 384.074 397.632C385.359 406.292 385.68 415.594 385.68 429.387V525.936H335.24V437.085C335.24 430.67 335.24 422.01 334.597 413.349C333.312 396.028 323.674 385.122 304.076 385.122C284.157 385.443 269.378 403.085 269.378 446.708V525.936H218.938V288.573H269.378V381.914L283.514 361.386ZM271.182 376.118V286.772H217.135V527.737H271.182V446.708C271.182 425.054 274.858 410.125 280.788 400.629C286.65 391.242 294.757 387.077 304.09 386.922C313.544 386.925 320.348 389.55 324.944 394.029C329.557 398.524 332.178 405.111 332.799 413.482C333.436 422.067 333.436 430.664 333.436 437.085V527.737H387.483V429.387C387.483 415.592 387.164 406.182 385.86 397.387C383.881 382.096 377.507 369.854 366.88 361.457C356.273 353.077 341.622 348.679 323.353 348.679C307.009 348.679 294.434 351.954 282.514 359.888L282.225 360.08L271.182 376.118ZM581.963 468.323L581.44 470.537C576.686 490.668 566.084 506.131 551.287 516.542C536.508 526.941 517.652 532.227 496.474 532.227C472.178 532.227 450.328 524.816 434.541 509.589C418.74 494.349 409.212 471.471 409.212 440.935C409.212 414.871 417.945 391.796 433.682 375.223C449.43 358.638 472.084 348.679 499.687 348.679C527.492 348.679 548.722 359.231 562.977 375.685C577.202 392.103 584.379 414.276 584.379 437.406C584.379 441.976 584.053 447.494 583.406 453.633L583.236 455.245H463.441C465.026 470.268 469.101 479.807 474.722 485.635C480.538 491.665 488.269 493.984 497.438 493.984C505.944 493.984 512.915 491.672 518.081 487.561C523.239 483.455 526.734 477.449 528.112 469.805L528.379 468.323H581.963ZM461.628 455.245C464.874 486.516 478.835 495.785 497.438 495.785C515.108 495.785 526.996 486.162 529.887 470.124H579.685C579.542 470.728 579.394 471.329 579.24 471.924C569.381 510.212 537.6 530.427 496.474 530.427C448.605 530.427 411.015 501.238 411.015 440.935C411.015 389.613 445.392 350.48 499.687 350.48C554.304 350.48 582.576 391.858 582.576 437.406C582.576 441.897 582.255 447.35 581.612 453.444H461.456C461.509 454.052 461.567 454.652 461.628 455.245ZM518.383 395.585C513.267 389.88 506.311 386.922 497.438 386.922C488.848 386.922 481.706 389.587 476.193 395.167C470.956 400.467 467.041 408.544 464.89 419.888H528.152C526.594 409.085 523.251 401.013 518.383 395.585ZM529.973 419.888C526.744 397.008 515.602 385.122 497.438 385.122C479.879 385.122 467.522 395.816 463.056 419.888C462.946 420.481 462.841 421.081 462.741 421.689H530.208C530.135 421.081 530.057 420.481 529.973 419.888ZM672.314 362.879L672.485 362.702C681.519 353.348 694.527 348.679 704.947 348.679C710.272 348.679 713.841 349.276 717.476 349.884L719.601 350.238V394.42L717.682 394.296C697.953 393.025 684.419 396.406 675.735 405.565C666.993 414.787 662.735 430.302 662.735 454.407V527.737H608.689V353.17H662.735V380.571L672.314 362.879ZM660.932 387.688V354.97H610.492V525.936H660.932V454.407C660.932 406.709 677.445 390.429 715.994 392.395C716.59 392.426 717.191 392.461 717.798 392.5V351.763L717.189 351.661C713.564 351.055 710.12 350.48 704.947 350.48C694.987 350.48 682.458 354.97 673.783 363.952L660.932 387.688Z" fill="black"/>
<path fill-rule="evenodd" clip-rule="evenodd" d="M209.146 262.164L188.906 199.615H116.619L96.0577 262.164H42.4048L122.402 40.8385H184.73L263.763 262.164H209.146ZM117.925 201.416L97.3637 263.964H39.8369L121.136 39.0381H186.001L266.32 263.964H207.834L187.594 201.416H117.925ZM152.923 84.462L129.149 160.162H176.376L152.923 84.462ZM152.912 90.5168L131.604 158.361H173.931L152.912 90.5168ZM330.923 24.6038V203.785C330.923 211.152 330.924 214.932 331.236 219.326C331.69 222.9 332.662 224.733 334.781 225.849C337.194 227.121 341.395 227.648 348.962 227.327L350.842 227.247V265.076L349.218 265.238C339.538 266.205 330.159 266.851 318.839 266.851C306.602 266.851 296.584 264.496 289.43 259.022C282.21 253.497 278.191 245.016 277.523 233.416C276.877 225.013 276.877 216.617 276.877 204.805V24.6038H330.923ZM279.322 233.295C280.607 255.749 294.744 265.051 318.839 265.051C330.084 265.051 339.401 264.409 349.039 263.447V229.125C348.419 229.152 347.818 229.173 347.236 229.188C333.653 229.547 330.365 226.885 329.441 219.503C329.12 215.012 329.12 211.163 329.12 203.785V26.4042H278.68V204.748C278.68 216.616 278.68 224.956 279.322 233.295ZM532.672 199.74L532.346 201.819C528.906 223.731 518.802 240.445 503.773 251.658C488.771 262.85 469.007 268.455 446.39 268.455C422.229 268.455 400.857 260.707 385.52 245.436C370.178 230.159 361.055 207.533 361.055 178.124C361.055 148.358 371.004 125.018 387.259 109.118C403.502 93.2283 425.904 84.907 450.567 84.907C474.88 84.907 494.682 92.4067 508.751 104.888C522.82 117.37 531.049 134.74 532.363 154.267L532.493 156.188H479.857L479.626 154.656C477.895 143.187 474.155 135.348 469.029 130.38C463.933 125.44 457.272 123.15 449.282 123.15C439.249 123.15 431.146 127.208 425.473 135.552C419.735 143.994 416.387 156.973 416.387 174.917C416.387 194.644 419.822 208.514 425.613 217.398C431.332 226.17 439.427 230.212 449.282 230.212C456.555 230.212 463.014 227.726 468.125 222.923C473.253 218.104 477.124 210.858 478.996 201.198L479.279 199.74H532.672ZM530.264 203.34C522.894 245.14 490.42 266.655 446.39 266.655C398.842 266.655 362.859 236.182 362.859 178.124C362.859 119.425 402.054 86.7074 450.567 86.7074C497.681 86.7074 527.057 115.293 530.422 152.588C530.476 153.186 530.524 153.786 530.564 154.388H481.409C477.875 130.972 465.988 121.35 449.282 121.35C428.078 121.35 414.584 138.671 414.584 174.917C414.584 214.691 428.399 232.012 449.282 232.012C464.703 232.012 476.911 221.427 480.767 201.54H530.564C530.469 202.144 530.369 202.744 530.264 203.34ZM622.205 97.6133C633.771 89.915 645.98 86.7074 662.043 86.7074C698.026 86.7074 718.909 104.028 722.764 133.859C724.05 142.52 724.371 151.822 724.371 165.615V262.164H673.931V173.313C673.931 166.898 673.931 158.237 673.288 149.577C672.003 132.256 662.365 121.35 642.767 121.35C622.848 121.67 608.069 139.312 608.069 182.936V262.164H557.629V24.8004H608.069V118.142L622.205 97.6133ZM609.873 112.345V23H555.826V263.964H609.873V182.936C609.873 161.281 613.549 146.353 619.479 136.857C625.341 127.47 633.448 123.305 642.781 123.15C652.235 123.153 659.039 125.777 663.635 130.256C668.248 134.751 670.869 141.339 671.49 149.71C672.127 158.294 672.127 166.891 672.127 173.313V263.964H726.174V165.615C726.174 151.82 725.854 142.409 724.551 133.615C722.572 118.323 716.198 106.081 705.571 97.685C694.964 89.3048 680.313 84.907 662.043 84.907C645.699 84.907 633.124 88.1817 621.205 96.1152L620.916 96.3076L609.873 112.345ZM920.653 204.551L920.131 206.765C915.377 226.896 904.775 242.358 889.978 252.77C875.199 263.168 856.343 268.455 835.165 268.455C810.869 268.455 789.018 261.043 773.232 245.817C757.431 230.577 747.903 207.699 747.903 177.162C747.903 151.099 756.636 128.023 772.373 111.45C788.121 94.8655 810.775 84.907 838.378 84.907C866.183 84.907 887.413 95.4588 901.668 111.912C915.893 128.331 923.07 150.503 923.07 173.634C923.07 178.203 922.744 183.722 922.097 189.86L921.927 191.472H802.132C803.717 206.495 807.792 216.035 813.413 221.862C819.229 227.893 826.96 230.212 836.129 230.212C844.635 230.212 851.606 227.9 856.772 223.788C861.93 219.683 865.425 213.677 866.803 206.032L867.07 204.551H920.653ZM800.319 191.472C803.565 222.744 817.526 232.012 836.129 232.012C853.799 232.012 865.687 222.389 868.578 206.351H918.376C918.233 206.956 918.085 207.556 917.931 208.152C908.072 246.439 876.291 266.655 835.165 266.655C787.295 266.655 749.706 237.465 749.706 177.162C749.706 125.84 784.083 86.7074 838.378 86.7074C892.995 86.7074 921.267 128.086 921.267 173.634C921.267 178.124 920.946 183.577 920.303 189.672H800.146C800.2 190.28 800.258 190.88 800.319 191.472ZM857.074 131.813C851.957 126.107 845.002 123.15 836.129 123.15C827.539 123.15 820.397 125.815 814.884 131.395C809.647 136.694 805.731 144.772 803.581 156.116H866.843C865.285 145.312 861.942 137.241 857.074 131.813ZM868.664 156.116C865.435 133.235 854.293 121.35 836.129 121.35C818.57 121.35 806.213 132.044 801.747 156.116C801.637 156.708 801.532 157.308 801.432 157.916H868.899C868.826 157.309 868.748 156.709 868.664 156.116ZM1011 99.1068L1011.18 98.9296C1020.21 89.5757 1033.22 84.907 1043.64 84.907C1048.96 84.907 1052.53 85.5037 1056.17 86.1113L1058.29 86.4652V130.647L1056.37 130.524C1036.64 129.253 1023.11 132.633 1014.43 141.793C1005.68 151.014 1001.43 166.53 1001.43 190.634V263.964H947.38V89.3976H1001.43V116.799L1011 99.1068ZM999.623 123.916V91.198H949.183V262.164H999.623V190.634C999.623 142.936 1016.14 126.657 1054.69 128.623C1055.28 128.653 1055.88 128.688 1056.49 128.727V87.9904L1055.88 87.8889C1052.25 87.2829 1048.81 86.7074 1043.64 86.7074C1033.68 86.7074 1021.15 91.198 1012.47 100.179L999.623 123.916Z" fill="black"/>
<path d="M35.6865 67.071L33.6887 66.9781L33.5302 70.3852L36.5809 68.8599L35.6865 67.071ZM68.3282 30.2975L68.7112 32.2605L70.3282 31.945V30.2975H68.3282ZM68.3282 7.5723H70.3282V5.36232L68.1292 5.58222L68.3282 7.5723ZM74.0468 92.6885C74.0468 83.9433 70.9767 76.4934 65.6547 71.2274C60.3358 65.9645 52.8916 63.0051 44.3634 63.0051V67.0051C51.9494 67.0051 58.3469 69.6237 62.8412 74.0707C67.3324 78.5145 70.0468 84.9064 70.0468 92.6885H74.0468ZM44.3634 63.0051C39.7784 63.0051 35.7316 64.8124 34.7921 65.2822L36.5809 68.8599C37.2941 68.5033 40.6847 67.0051 44.3634 67.0051V63.0051ZM37.6843 67.1639C38.4642 50.3967 52.596 35.4049 68.7112 32.2605L67.9451 28.3345C50.1791 31.8011 34.5615 48.2114 33.6887 66.9781L37.6843 67.1639ZM70.3282 30.2975V7.5723H66.3282V30.2975H70.3282ZM68.1292 5.58222C55.3148 6.86365 39.9924 12.8289 27.8587 25.1222C15.6856 37.4555 6.82944 56.0499 6.82944 82.3589H10.8294C10.8294 57.0197 19.327 39.4603 30.7055 27.9321C42.1234 16.364 56.5504 10.76 68.5272 9.56237L68.1292 5.58222ZM6.82944 82.3589C6.82944 94.1174 10.3606 104.02 16.5803 111.01C22.8159 118.018 31.6341 121.959 41.8843 121.959V117.959C32.7148 117.959 25.0055 114.462 19.5686 108.351C14.1159 102.223 10.8294 93.3256 10.8294 82.3589H6.82944ZM41.8843 121.959C60.1889 121.959 74.0468 108.815 74.0468 92.6885H70.0468C70.0468 106.311 58.2873 117.959 41.8843 117.959V121.959Z" fill="black"/>
<path d="M415.605 604.929L417.603 605.022L417.762 601.615L414.711 603.14L415.605 604.929ZM382.964 641.702L382.581 639.74L380.964 640.055V641.702H382.964ZM382.964 664.428H380.964V666.638L383.163 666.418L382.964 664.428ZM377.245 579.311C377.245 588.057 380.315 595.507 385.637 600.773C390.956 606.035 398.4 608.995 406.929 608.995V604.995C399.343 604.995 392.945 602.376 388.451 597.929C383.96 593.485 381.245 587.094 381.245 579.311H377.245ZM406.929 608.995C411.514 608.995 415.56 607.188 416.5 606.718L414.711 603.14C413.998 603.497 410.607 604.995 406.929 604.995V608.995ZM413.608 604.836C412.828 621.603 398.696 636.595 382.581 639.74L383.347 643.665C401.113 640.199 416.73 623.789 417.603 605.022L413.608 604.836ZM380.964 641.702V664.428H384.964V641.702H380.964ZM383.163 666.418C395.977 665.136 411.3 659.171 423.433 646.878C435.606 634.545 444.463 615.95 444.463 589.641H440.463C440.463 614.98 431.965 632.54 420.586 644.068C409.169 655.636 394.742 661.24 382.765 662.438L383.163 666.418ZM444.463 589.641C444.463 577.883 440.931 567.98 434.712 560.99C428.476 553.982 419.658 550.041 409.408 550.041V554.041C418.577 554.041 426.287 557.538 431.723 563.649C437.176 569.777 440.463 578.674 440.463 589.641H444.463ZM409.408 550.041C391.103 550.041 377.245 563.185 377.245 579.311H381.245C381.245 565.689 393.005 554.041 409.408 554.041V550.041Z" fill="black"/>
</g>
<defs>
<clipPath id="clip0_3_35">
<rect width="430" height="819" fill="white"/>
</clipPath>
<clipPath id="clip1_3_35">
<rect width="417.076" height="396" fill="white" transform="translate(-1.39209 86)"/>
</clipPath>
</defs>
</svg>
