<svg width="58" height="57" viewBox="0 0 58 57" fill="none" xmlns="http://www.w3.org/2000/svg">
<path d="M16.8007 0H40.676C49.7713 0 57.1613 7.38996 57.1613 16.4853V40.3606C57.1613 44.7328 55.4245 48.9259 52.3329 52.0174C49.2413 55.109 45.0482 56.8459 40.676 56.8459H16.8007C7.70539 56.8459 0.31543 49.4559 0.31543 40.3606V16.4853C0.31543 12.1131 2.05227 7.92003 5.14386 4.82843C8.23546 1.73684 12.4286 0 16.8007 0M16.2323 5.68459C13.5185 5.68459 10.9159 6.76263 8.99698 8.68155C7.07806 10.6005 6.00002 13.2031 6.00002 15.9168V40.929C6.00002 46.5852 10.5761 51.1613 16.2323 51.1613H41.2445C43.9582 51.1613 46.5608 50.0833 48.4798 48.1643C50.3987 46.2454 51.4767 43.6428 51.4767 40.929V15.9168C51.4767 10.2607 46.9006 5.68459 41.2445 5.68459H16.2323ZM43.6604 9.94803C44.6027 9.94803 45.5064 10.3223 46.1727 10.9886C46.839 11.6549 47.2133 12.5586 47.2133 13.5009C47.2133 14.4432 46.839 15.3469 46.1727 16.0132C45.5064 16.6794 44.6027 17.0538 43.6604 17.0538C42.7181 17.0538 41.8144 16.6794 41.1482 16.0132C40.4819 15.3469 40.1075 14.4432 40.1075 13.5009C40.1075 12.5586 40.4819 11.6549 41.1482 10.9886C41.8144 10.3223 42.7181 9.94803 43.6604 9.94803ZM28.7384 14.2115C32.5075 14.2115 36.1222 15.7087 38.7874 18.3739C41.4526 21.0391 42.9498 24.6538 42.9498 28.4229C42.9498 32.1921 41.4526 35.8068 38.7874 38.472C36.1222 41.1371 32.5075 42.6344 28.7384 42.6344C24.9693 42.6344 21.3545 41.1371 18.6893 38.472C16.0242 35.8068 14.5269 32.1921 14.5269 28.4229C14.5269 24.6538 16.0242 21.0391 18.6893 18.3739C21.3545 15.7087 24.9693 14.2115 28.7384 14.2115M28.7384 19.8961C26.4769 19.8961 24.3081 20.7944 22.709 22.3935C21.1099 23.9926 20.2115 26.1615 20.2115 28.4229C20.2115 30.6844 21.1099 32.8533 22.709 34.4524C24.3081 36.0515 26.4769 36.9498 28.7384 36.9498C30.9998 36.9498 33.1687 36.0515 34.7678 34.4524C36.3669 32.8533 37.2653 30.6844 37.2653 28.4229C37.2653 26.1615 36.3669 23.9926 34.7678 22.3935C33.1687 20.7944 30.9998 19.8961 28.7384 19.8961Z" fill="white"/>
</svg>
