<svg width="381" height="33" viewBox="0 0 381 33" fill="none" xmlns="http://www.w3.org/2000/svg">
<path d="M50.4855 3.472C46.4215 3.472 43.1255 5.872 43.1255 9.68C43.1255 13.328 45.8455 14.896 49.7495 15.792C53.6215 16.688 55.1575 17.904 55.1575 20.592C55.1575 22.896 53.1095 24.272 50.5815 24.272C47.7015 24.272 45.6855 22.64 45.0455 19.728H42.1015C42.5815 23.984 45.6535 26.448 50.5175 26.448C54.7735 26.448 58.1015 23.952 58.1015 20.08C58.1015 16.336 55.6695 14.352 50.8055 13.232C47.4455 12.464 46.0695 11.44 46.0695 9.04C46.0695 6.736 47.9255 5.648 50.2615 5.648C53.0455 5.648 54.6775 7.248 54.9335 10.032H57.8775C57.4615 6.256 55.0615 3.472 50.4855 3.472ZM68.0843 8.592C63.8283 8.592 60.1163 11.824 60.1163 17.552C60.1163 23.76 63.3802 26.448 67.6683 26.448C71.4443 26.448 74.2603 24.528 75.0923 20.592H72.2123C71.6363 23.056 70.0683 24.336 67.8283 24.336C65.3003 24.336 63.1243 22.288 63.1243 17.36C63.1243 12.784 65.3643 10.704 68.0203 10.704C70.2923 10.704 71.7643 12.016 72.3723 14.736H75.2523C74.7403 11.024 72.1483 8.592 68.0843 8.592ZM85.1178 8.656C84.3177 8.656 83.4538 8.944 82.7498 9.424L81.2138 11.696V9.04H78.4618V26H81.2138V16.336C81.2138 12.464 83.3898 10.768 86.2698 10.96V8.88C85.9498 8.72 85.5658 8.656 85.1178 8.656ZM95.6573 8.592C89.8973 8.592 87.2413 12.72 87.2413 17.52C87.2413 22.288 89.8973 26.448 95.6573 26.448C101.417 26.448 104.073 22.288 104.073 17.52C104.073 12.72 101.417 8.592 95.6573 8.592ZM95.6573 24.336C92.2333 24.336 90.2493 21.488 90.2493 17.52C90.2493 13.52 92.2333 10.704 95.6573 10.704C99.0813 10.704 101.065 13.52 101.065 17.52C101.065 21.488 99.0813 24.336 95.6573 24.336ZM110.023 2.48H107.271V21.232C107.271 22.16 107.271 22.896 107.303 23.472C107.399 25.616 108.583 26.128 110.183 26.128C110.823 26.128 111.527 26.096 112.135 26V24.016C110.631 24.176 110.119 23.824 110.055 22.736C110.023 22.192 110.023 21.648 110.023 21.136V2.48ZM117.93 2.48H115.178V21.232C115.178 22.16 115.178 22.896 115.21 23.472C115.306 25.616 116.49 26.128 118.09 26.128C118.73 26.128 119.434 26.096 120.042 26V24.016C118.538 24.176 118.026 23.824 117.962 22.736C117.93 22.192 117.93 21.648 117.93 21.136V2.48ZM140.486 4.048C139.366 3.92 138.854 3.92 137.67 3.92H130.95V26H137.51C138.694 26 139.206 26 140.326 25.872C145.446 25.232 149.222 21.2 149.222 14.704C149.222 8.112 145.606 4.688 140.486 4.048ZM140.038 23.6C139.334 23.728 138.502 23.76 137.35 23.76H133.702V6.16H137.51C138.662 6.16 139.494 6.192 140.198 6.32C143.942 6.928 146.214 9.808 146.214 14.704C146.214 19.92 143.782 22.992 140.038 23.6ZM159.814 8.592C154.054 8.592 151.398 12.72 151.398 17.52C151.398 22.288 154.054 26.448 159.814 26.448C165.574 26.448 168.23 22.288 168.23 17.52C168.23 12.72 165.574 8.592 159.814 8.592ZM159.814 24.336C156.39 24.336 154.406 21.488 154.406 17.52C154.406 13.52 156.39 10.704 159.814 10.704C163.238 10.704 165.222 13.52 165.222 17.52C165.222 21.488 163.238 24.336 159.814 24.336ZM194.116 9.04H191.172L187.236 23.28L183.46 9.04H180.036L176.324 23.376L172.388 9.04H169.22L174.628 26H177.892L181.668 11.728L185.444 26H188.708L194.116 9.04ZM210.953 13.552C210.697 10.576 208.617 8.592 204.905 8.592C203.177 8.592 201.929 8.88 200.489 10L199.433 11.952V9.04H196.681V26H199.433V18.544C199.433 12.752 201.673 10.768 204.329 10.768C206.953 10.768 208.041 12.24 208.201 14.224C208.265 15.088 208.265 15.792 208.265 16.656V26H211.017V16.464C211.017 15.088 211.017 14.416 210.953 13.552ZM225.852 11.28H229.02V9.168H225.852V5.232H223.1V9.168H220.828V11.28H223.1V21.168C223.1 22.128 223.1 22.832 223.132 23.28C223.292 25.392 224.38 26.256 226.492 26.256C227.26 26.256 228.028 26.224 228.828 26.096V24.08C226.684 24.336 226.012 23.984 225.884 22.352C225.852 21.904 225.852 21.616 225.852 21.04V11.28ZM239.189 8.592C233.429 8.592 230.773 12.72 230.773 17.52C230.773 22.288 233.429 26.448 239.189 26.448C244.949 26.448 247.605 22.288 247.605 17.52C247.605 12.72 244.949 8.592 239.189 8.592ZM239.189 24.336C235.765 24.336 233.781 21.488 233.781 17.52C233.781 13.52 235.765 10.704 239.189 10.704C242.613 10.704 244.597 13.52 244.597 17.52C244.597 21.488 242.613 24.336 239.189 24.336ZM269.604 26L277.572 3.92H272.26L266.564 22.128L260.964 3.92H255.524L263.396 26H269.604ZM289.456 3.472C282.608 3.472 278.352 7.952 278.352 14.96C278.352 21.936 282.608 26.448 289.456 26.448C296.272 26.448 300.528 21.936 300.528 14.96C300.528 7.952 296.272 3.472 289.456 3.472ZM289.456 22.736C285.776 22.736 283.536 19.888 283.536 14.96C283.536 10 285.776 7.184 289.456 7.184C293.104 7.184 295.344 10 295.344 14.96C295.344 19.888 293.104 22.736 289.456 22.736ZM320.789 7.824V3.92H301.077V7.824H308.437V26H313.429V7.824H320.789ZM339.635 22.064H328.275V16.88H338.579V12.976H328.275V7.824H339.315V3.92H323.251V26H339.635V22.064Z" fill="black"/>
<path fill-rule="evenodd" clip-rule="evenodd" d="M1.43934 1.43934C2.02513 0.853553 2.97487 0.853553 3.56066 1.43934L14.5 12.3787L25.4393 1.43934C26.0251 0.853555 26.9749 0.853555 27.5607 1.43934C28.1464 2.02513 28.1464 2.97487 27.5607 3.56066L15.5607 15.5607C15.2794 15.842 14.8978 16 14.5 16C14.1022 16 13.7206 15.842 13.4393 15.5607L1.43934 3.56066C0.853553 2.97487 0.853553 2.02513 1.43934 1.43934ZM1.43934 17.4393C2.02513 16.8536 2.97487 16.8536 3.56066 17.4393L14.5 28.3787L25.4393 17.4393C26.0251 16.8536 26.9749 16.8536 27.5607 17.4393C28.1464 18.0251 28.1464 18.9749 27.5607 19.5607L15.5607 31.5607C15.2794 31.842 14.8978 32 14.5 32C14.1022 32 13.7206 31.842 13.4393 31.5607L1.43934 19.5607C0.853553 18.9749 0.853553 18.0251 1.43934 17.4393Z" stroke="black" stroke-linecap="round" stroke-linejoin="round"/>
<path fill-rule="evenodd" clip-rule="evenodd" d="M353.439 1.43934C354.025 0.853553 354.975 0.853553 355.561 1.43934L366.5 12.3787L377.439 1.43934C378.025 0.853555 378.975 0.853555 379.561 1.43934C380.146 2.02513 380.146 2.97487 379.561 3.56066L367.561 15.5607C367.279 15.842 366.898 16 366.5 16C366.102 16 365.721 15.842 365.439 15.5607L353.439 3.56066C352.854 2.97487 352.854 2.02513 353.439 1.43934ZM353.439 17.4393C354.025 16.8536 354.975 16.8536 355.561 17.4393L366.5 28.3787L377.439 17.4393C378.025 16.8536 378.975 16.8536 379.561 17.4393C380.146 18.0251 380.146 18.9749 379.561 19.5607L367.561 31.5607C367.279 31.842 366.898 32 366.5 32C366.102 32 365.721 31.842 365.439 31.5607L353.439 19.5607C352.854 18.9749 352.854 18.0251 353.439 17.4393Z" stroke="black" stroke-linecap="round" stroke-linejoin="round"/>
</svg>
