<svg width="61" height="54" viewBox="0 0 61 54" fill="none" xmlns="http://www.w3.org/2000/svg">
<path d="M60.1284 8.91989C59.8858 8.33543 59.4753 7.83609 58.9487 7.48508C58.4222 7.13407 57.8034 6.94717 57.1706 6.94805H49.6563C48.0417 4.42494 45.653 2.49299 42.8481 1.4417C40.0432 0.390404 36.9731 0.276386 34.0979 1.11673C31.2227 1.95707 28.6973 3.70652 26.9001 6.10292C25.1028 8.49932 24.1305 11.4136 24.1289 14.4091V14.6222C14.1898 11.5579 6.22249 3.69718 6.14255 3.61724C5.72892 3.20383 5.20983 2.91177 4.64177 2.77284C4.0737 2.63391 3.47842 2.65343 2.92068 2.82927C2.36293 3.00511 1.86409 3.33054 1.47843 3.77015C1.09276 4.20976 0.835043 4.74673 0.733307 5.32261C-1.66488 18.5393 2.3321 27.4392 6.08925 32.5553C7.75225 34.8191 9.7257 36.8374 11.9515 38.5508C8.11439 42.3879 2.81173 44.4397 2.75844 44.4663C2.30625 44.629 1.8978 44.8941 1.56499 45.2408C1.23218 45.5874 0.984022 46.0064 0.839893 46.4648C0.693849 46.9257 0.651559 47.4131 0.716054 47.8922C0.78055 48.3713 0.950234 48.8302 1.21294 49.2361C1.71923 50.0088 4.78358 53.8459 14.5362 53.8459C33.7483 53.8459 49.8428 39.1637 51.6548 20.1647L59.4356 12.4106C59.8779 11.9591 60.179 11.3884 60.302 10.7685C60.4251 10.1485 60.3647 9.50609 60.1284 8.91989V8.91989ZM46.3255 16.4875C45.7607 17.0249 45.4264 17.7604 45.3928 18.5393C44.3536 34.7404 30.7906 47.4507 14.5362 47.4507C13.4223 47.4576 12.3093 47.3864 11.2054 47.2376C13.9766 45.4522 17.1209 42.9475 19.3326 39.6433C19.5843 39.263 19.7525 38.8335 19.8259 38.3834C19.8994 37.9332 19.8766 37.4726 19.7589 37.032C19.6449 36.5957 19.4383 36.189 19.1532 35.8396C18.8682 35.4902 18.5113 35.2062 18.1068 35.0068C17.5739 34.7137 5.95602 28.5584 6.40901 12.2507C10.9922 15.7414 18.3999 20.4312 26.7936 21.8168C27.2514 21.8942 27.7205 21.8709 28.1685 21.7487C28.6164 21.6264 29.0323 21.4081 29.3873 21.1089C29.7423 20.8097 30.0279 20.4367 30.2242 20.016C30.4205 19.5953 30.5229 19.1368 30.5241 18.6725V14.4091C30.5452 12.4183 31.3526 10.5167 32.7703 9.11901C34.188 7.7213 36.1009 6.9409 38.0917 6.94805C39.527 6.96668 40.9264 7.39893 42.1221 8.19295C43.3179 8.98697 44.2592 10.1091 44.8333 11.4247C45.0793 11.997 45.4886 12.4842 46.0098 12.8255C46.5311 13.1667 47.1414 13.3467 47.7644 13.3432H49.4431L46.3255 16.4875Z" fill="white"/>
</svg>
