<svg width="67" height="54" viewBox="0 0 67 54" fill="none" xmlns="http://www.w3.org/2000/svg">
<path d="M58.7459 10.7212C58.4939 9.73307 57.7776 8.98697 56.9586 8.75817C55.5095 8.3503 48.4464 7.42181 33.5244 7.42181C18.6023 7.42181 11.5458 8.3503 10.0835 8.75817C9.27438 8.98365 8.55812 9.72976 8.30278 10.7212C7.94134 12.1272 6.99628 18.0198 6.99628 27.3179C6.99628 36.616 7.94134 42.5052 8.30278 43.9178C8.5548 44.9027 9.27106 45.6488 10.0868 45.8743C11.5458 46.2854 18.6023 47.2139 33.5244 47.2139C48.4464 47.2139 55.5062 46.2854 56.9652 45.8776C57.7743 45.6521 58.4906 44.906 58.7459 43.9145C59.1074 42.5085 60.0524 36.6027 60.0524 27.3179C60.0524 18.033 59.1074 12.1305 58.7459 10.7212ZM65.169 9.07319C66.6844 14.9823 66.6844 27.3179 66.6844 27.3179C66.6844 27.3179 66.6844 39.6534 65.169 45.5626C64.3268 48.8288 61.863 51.3987 58.7426 52.2675C53.0755 53.8459 33.5244 53.8459 33.5244 53.8459C33.5244 53.8459 13.9831 53.8459 8.3061 52.2675C5.17247 51.3855 2.71199 48.8189 1.87967 45.5626C0.364258 39.6534 0.364258 27.3179 0.364258 27.3179C0.364258 27.3179 0.364258 14.9823 1.87967 9.07319C2.72194 5.80692 5.18574 3.23701 8.3061 2.36821C13.9831 0.789794 33.5244 0.789795 33.5244 0.789795C33.5244 0.789795 53.0755 0.789794 58.7426 2.36821C61.8762 3.25027 64.3367 5.81687 65.169 9.07319ZM26.8923 38.9239V15.7118L46.7884 27.3179L26.8923 38.9239Z" fill="white"/>
</svg>
